G04 #@! TF.FileFunction,Copper,L2,Bot,Signal*
%FSLAX46Y46*%
G04 Gerber Fmt 4.6, Leading zero omitted, Abs format (unit mm)*
G04 Created by KiCad (PCBNEW 4.0.7) date 12/02/17 18:35:54*
%MOMM*%
%LPD*%
G01*
G04 APERTURE LIST*
%ADD10C,0.100000*%
%ADD11O,1.727200X1.727200*%
%ADD12R,1.727200X1.727200*%
%ADD13R,1.700000X1.700000*%
%ADD14O,1.700000X1.700000*%
%ADD15R,2.300000X0.500000*%
%ADD16O,2.900000X1.800000*%
%ADD17R,1.574800X2.286000*%
%ADD18O,1.574800X2.286000*%
%ADD19C,10.160000*%
%ADD20C,0.600000*%
%ADD21C,0.500000*%
%ADD22C,0.254000*%
G04 APERTURE END LIST*
D10*
D11*
X111500000Y-54960000D03*
X111500000Y-57500000D03*
X108960000Y-54960000D03*
X108960000Y-57500000D03*
X106420000Y-54960000D03*
X106420000Y-57500000D03*
D12*
X103880000Y-54960000D03*
D11*
X103880000Y-57500000D03*
D13*
X134120000Y-52800000D03*
D14*
X131580000Y-52800000D03*
X129040000Y-52800000D03*
X126500000Y-52800000D03*
X123960000Y-52800000D03*
X121420000Y-52800000D03*
D15*
X143200000Y-58400000D03*
X143200000Y-59200000D03*
X143200000Y-60000000D03*
X143200000Y-60800000D03*
X143200000Y-61600000D03*
D16*
X143200000Y-56300000D03*
X143200000Y-63700000D03*
X147950000Y-63700000D03*
X147950000Y-56300000D03*
D17*
X91550000Y-70120000D03*
D18*
X89010000Y-70120000D03*
X86470000Y-70120000D03*
X83930000Y-70120000D03*
X81390000Y-70120000D03*
X78850000Y-70120000D03*
X76310000Y-70120000D03*
X73770000Y-70120000D03*
X71230000Y-70120000D03*
X68690000Y-70120000D03*
X66150000Y-70120000D03*
X63610000Y-70120000D03*
X61070000Y-70120000D03*
X58530000Y-70120000D03*
X55990000Y-70120000D03*
X55990000Y-54880000D03*
X58530000Y-54880000D03*
X61070000Y-54880000D03*
X63610000Y-54880000D03*
X66150000Y-54880000D03*
X68690000Y-54880000D03*
X71230000Y-54880000D03*
X73770000Y-54880000D03*
X76310000Y-54880000D03*
X78850000Y-54880000D03*
X81390000Y-54880000D03*
X83930000Y-54880000D03*
X86470000Y-54880000D03*
X89010000Y-54880000D03*
X91550000Y-54880000D03*
D19*
X95000000Y-80000000D03*
X80000000Y-80000000D03*
D13*
X87800000Y-87400000D03*
D14*
X85260000Y-87400000D03*
D20*
X89000000Y-51750000D03*
X111500000Y-51750000D03*
X94175000Y-70100000D03*
X94175000Y-52750000D03*
X108950000Y-52750000D03*
X91575000Y-59475000D03*
X108950000Y-59500000D03*
X78850000Y-52750000D03*
X81400000Y-60950000D03*
X106400000Y-60950000D03*
X71200000Y-66200000D03*
X126500000Y-66200000D03*
X123950000Y-63675000D03*
X73800000Y-63675000D03*
X146000000Y-58400000D03*
D21*
X89000000Y-51750000D02*
X89000000Y-54870000D01*
X89000000Y-54870000D02*
X89010000Y-54880000D01*
X111500000Y-54960000D02*
X111500000Y-51750000D01*
X94175000Y-52750000D02*
X94175000Y-70100000D01*
X108960000Y-54960000D02*
X108960000Y-52760000D01*
X108960000Y-52760000D02*
X108950000Y-52750000D01*
X91575000Y-59475000D02*
X91575000Y-54905000D01*
X91575000Y-54905000D02*
X91550000Y-54880000D01*
X108960000Y-57500000D02*
X108960000Y-59490000D01*
X108960000Y-59490000D02*
X108950000Y-59500000D01*
X78850000Y-52750000D02*
X78850000Y-54880000D01*
X81400000Y-60950000D02*
X81400000Y-54890000D01*
X81400000Y-54890000D02*
X81390000Y-54880000D01*
X106420000Y-57500000D02*
X106420000Y-60930000D01*
X106420000Y-60930000D02*
X106400000Y-60950000D01*
X71200000Y-66200000D02*
X71200000Y-54910000D01*
X71200000Y-54910000D02*
X71230000Y-54880000D01*
X126500000Y-52800000D02*
X126500000Y-66200000D01*
X73800000Y-63675000D02*
X73800000Y-54910000D01*
X123960000Y-63665000D02*
X123950000Y-63675000D01*
X123960000Y-52800000D02*
X123960000Y-63665000D01*
X73800000Y-54910000D02*
X73770000Y-54880000D01*
X143200000Y-58400000D02*
X146000000Y-58400000D01*
D22*
G36*
X85873000Y-53210635D02*
X85464211Y-53483778D01*
X85200000Y-53879199D01*
X84935789Y-53483778D01*
X84474329Y-53175441D01*
X83930000Y-53067167D01*
X83385671Y-53175441D01*
X82924211Y-53483778D01*
X82660000Y-53879199D01*
X82395789Y-53483778D01*
X81934329Y-53175441D01*
X81390000Y-53067167D01*
X80845671Y-53175441D01*
X80384211Y-53483778D01*
X80120000Y-53879199D01*
X79855789Y-53483778D01*
X79735000Y-53403070D01*
X79735000Y-53056822D01*
X79784838Y-52936799D01*
X79785162Y-52564833D01*
X79643117Y-52221057D01*
X79380327Y-51957808D01*
X79036799Y-51815162D01*
X78664833Y-51814838D01*
X78321057Y-51956883D01*
X78057808Y-52219673D01*
X77915162Y-52563201D01*
X77914838Y-52935167D01*
X77965000Y-53056569D01*
X77965000Y-53403070D01*
X77844211Y-53483778D01*
X77580000Y-53879199D01*
X77315789Y-53483778D01*
X76854329Y-53175441D01*
X76310000Y-53067167D01*
X75765671Y-53175441D01*
X75304211Y-53483778D01*
X75040000Y-53879199D01*
X74775789Y-53483778D01*
X74314329Y-53175441D01*
X73770000Y-53067167D01*
X73225671Y-53175441D01*
X72764211Y-53483778D01*
X72500000Y-53879199D01*
X72235789Y-53483778D01*
X71774329Y-53175441D01*
X71230000Y-53067167D01*
X70685671Y-53175441D01*
X70224211Y-53483778D01*
X69960000Y-53879199D01*
X69695789Y-53483778D01*
X69234329Y-53175441D01*
X68690000Y-53067167D01*
X68145671Y-53175441D01*
X67684211Y-53483778D01*
X67420000Y-53879199D01*
X67155789Y-53483778D01*
X66694329Y-53175441D01*
X66150000Y-53067167D01*
X65605671Y-53175441D01*
X65144211Y-53483778D01*
X64880000Y-53879199D01*
X64615789Y-53483778D01*
X64154329Y-53175441D01*
X63610000Y-53067167D01*
X63065671Y-53175441D01*
X62604211Y-53483778D01*
X62340000Y-53879199D01*
X62075789Y-53483778D01*
X61614329Y-53175441D01*
X61070000Y-53067167D01*
X60525671Y-53175441D01*
X60064211Y-53483778D01*
X59800000Y-53879199D01*
X59535789Y-53483778D01*
X59074329Y-53175441D01*
X58530000Y-53067167D01*
X57985671Y-53175441D01*
X57524211Y-53483778D01*
X57260000Y-53879199D01*
X56995789Y-53483778D01*
X56534329Y-53175441D01*
X55990000Y-53067167D01*
X55445671Y-53175441D01*
X54984211Y-53483778D01*
X54675874Y-53945238D01*
X54567600Y-54489567D01*
X54567600Y-55270433D01*
X54675874Y-55814762D01*
X54984211Y-56276222D01*
X55445671Y-56584559D01*
X55990000Y-56692833D01*
X56534329Y-56584559D01*
X56995789Y-56276222D01*
X57260000Y-55880801D01*
X57524211Y-56276222D01*
X57985671Y-56584559D01*
X58530000Y-56692833D01*
X59074329Y-56584559D01*
X59535789Y-56276222D01*
X59800000Y-55880801D01*
X60064211Y-56276222D01*
X60525671Y-56584559D01*
X61070000Y-56692833D01*
X61614329Y-56584559D01*
X62075789Y-56276222D01*
X62340000Y-55880801D01*
X62604211Y-56276222D01*
X63065671Y-56584559D01*
X63610000Y-56692833D01*
X64154329Y-56584559D01*
X64615789Y-56276222D01*
X64880000Y-55880801D01*
X65144211Y-56276222D01*
X65605671Y-56584559D01*
X66150000Y-56692833D01*
X66694329Y-56584559D01*
X67155789Y-56276222D01*
X67420000Y-55880801D01*
X67684211Y-56276222D01*
X68145671Y-56584559D01*
X68690000Y-56692833D01*
X69234329Y-56584559D01*
X69695789Y-56276222D01*
X69960000Y-55880801D01*
X70224211Y-56276222D01*
X70315000Y-56336885D01*
X70315000Y-65893178D01*
X70265162Y-66013201D01*
X70264838Y-66385167D01*
X70406883Y-66728943D01*
X70669673Y-66992192D01*
X71013201Y-67134838D01*
X71385167Y-67135162D01*
X71728943Y-66993117D01*
X71992192Y-66730327D01*
X72134838Y-66386799D01*
X72135162Y-66014833D01*
X72085000Y-65893431D01*
X72085000Y-56376976D01*
X72235789Y-56276222D01*
X72500000Y-55880801D01*
X72764211Y-56276222D01*
X72915000Y-56376976D01*
X72915000Y-63368178D01*
X72865162Y-63488201D01*
X72864838Y-63860167D01*
X73006883Y-64203943D01*
X73269673Y-64467192D01*
X73613201Y-64609838D01*
X73985167Y-64610162D01*
X74328943Y-64468117D01*
X74592192Y-64205327D01*
X74734838Y-63861799D01*
X74735162Y-63489833D01*
X74685000Y-63368431D01*
X74685000Y-56336885D01*
X74775789Y-56276222D01*
X75040000Y-55880801D01*
X75304211Y-56276222D01*
X75765671Y-56584559D01*
X76310000Y-56692833D01*
X76854329Y-56584559D01*
X77315789Y-56276222D01*
X77580000Y-55880801D01*
X77844211Y-56276222D01*
X78305671Y-56584559D01*
X78850000Y-56692833D01*
X79394329Y-56584559D01*
X79855789Y-56276222D01*
X80120000Y-55880801D01*
X80384211Y-56276222D01*
X80515000Y-56363612D01*
X80515000Y-60643178D01*
X80465162Y-60763201D01*
X80464838Y-61135167D01*
X80606883Y-61478943D01*
X80869673Y-61742192D01*
X81213201Y-61884838D01*
X81585167Y-61885162D01*
X81928943Y-61743117D01*
X82192192Y-61480327D01*
X82334838Y-61136799D01*
X82335162Y-60764833D01*
X82285000Y-60643431D01*
X82285000Y-56350249D01*
X82395789Y-56276222D01*
X82660000Y-55880801D01*
X82924211Y-56276222D01*
X83385671Y-56584559D01*
X83930000Y-56692833D01*
X84474329Y-56584559D01*
X84935789Y-56276222D01*
X85200000Y-55880801D01*
X85464211Y-56276222D01*
X85873000Y-56549365D01*
X85873000Y-68450635D01*
X85464211Y-68723778D01*
X85200000Y-69119199D01*
X84935789Y-68723778D01*
X84474329Y-68415441D01*
X83930000Y-68307167D01*
X83385671Y-68415441D01*
X82924211Y-68723778D01*
X82660000Y-69119199D01*
X82395789Y-68723778D01*
X81934329Y-68415441D01*
X81390000Y-68307167D01*
X80845671Y-68415441D01*
X80384211Y-68723778D01*
X80120000Y-69119199D01*
X79855789Y-68723778D01*
X79394329Y-68415441D01*
X78850000Y-68307167D01*
X78305671Y-68415441D01*
X77844211Y-68723778D01*
X77580000Y-69119199D01*
X77315789Y-68723778D01*
X76854329Y-68415441D01*
X76310000Y-68307167D01*
X75765671Y-68415441D01*
X75304211Y-68723778D01*
X75040000Y-69119199D01*
X74775789Y-68723778D01*
X74314329Y-68415441D01*
X73770000Y-68307167D01*
X73225671Y-68415441D01*
X72764211Y-68723778D01*
X72500000Y-69119199D01*
X72235789Y-68723778D01*
X71774329Y-68415441D01*
X71230000Y-68307167D01*
X70685671Y-68415441D01*
X70224211Y-68723778D01*
X69960000Y-69119199D01*
X69695789Y-68723778D01*
X69234329Y-68415441D01*
X68690000Y-68307167D01*
X68145671Y-68415441D01*
X67684211Y-68723778D01*
X67420000Y-69119199D01*
X67155789Y-68723778D01*
X66694329Y-68415441D01*
X66150000Y-68307167D01*
X65605671Y-68415441D01*
X65144211Y-68723778D01*
X64880000Y-69119199D01*
X64615789Y-68723778D01*
X64154329Y-68415441D01*
X63610000Y-68307167D01*
X63065671Y-68415441D01*
X62604211Y-68723778D01*
X62340000Y-69119199D01*
X62075789Y-68723778D01*
X61614329Y-68415441D01*
X61070000Y-68307167D01*
X60525671Y-68415441D01*
X60064211Y-68723778D01*
X59800000Y-69119199D01*
X59535789Y-68723778D01*
X59074329Y-68415441D01*
X58530000Y-68307167D01*
X57985671Y-68415441D01*
X57524211Y-68723778D01*
X57260246Y-69118830D01*
X57255525Y-69102738D01*
X56905986Y-68668809D01*
X56416996Y-68401673D01*
X56337060Y-68384990D01*
X56117000Y-68507148D01*
X56117000Y-69993000D01*
X56137000Y-69993000D01*
X56137000Y-70247000D01*
X56117000Y-70247000D01*
X56117000Y-71732852D01*
X56337060Y-71855010D01*
X56416996Y-71838327D01*
X56905986Y-71571191D01*
X57255525Y-71137262D01*
X57260246Y-71121170D01*
X57524211Y-71516222D01*
X57985671Y-71824559D01*
X58530000Y-71932833D01*
X59074329Y-71824559D01*
X59535789Y-71516222D01*
X59800000Y-71120801D01*
X60064211Y-71516222D01*
X60525671Y-71824559D01*
X61070000Y-71932833D01*
X61614329Y-71824559D01*
X62075789Y-71516222D01*
X62340000Y-71120801D01*
X62604211Y-71516222D01*
X63065671Y-71824559D01*
X63610000Y-71932833D01*
X64154329Y-71824559D01*
X64615789Y-71516222D01*
X64880000Y-71120801D01*
X65144211Y-71516222D01*
X65605671Y-71824559D01*
X66150000Y-71932833D01*
X66694329Y-71824559D01*
X67155789Y-71516222D01*
X67420000Y-71120801D01*
X67684211Y-71516222D01*
X68145671Y-71824559D01*
X68690000Y-71932833D01*
X69234329Y-71824559D01*
X69695789Y-71516222D01*
X69960000Y-71120801D01*
X70224211Y-71516222D01*
X70685671Y-71824559D01*
X71230000Y-71932833D01*
X71774329Y-71824559D01*
X72235789Y-71516222D01*
X72500000Y-71120801D01*
X72764211Y-71516222D01*
X73225671Y-71824559D01*
X73770000Y-71932833D01*
X74314329Y-71824559D01*
X74775789Y-71516222D01*
X75040000Y-71120801D01*
X75304211Y-71516222D01*
X75765671Y-71824559D01*
X76310000Y-71932833D01*
X76854329Y-71824559D01*
X77315789Y-71516222D01*
X77580000Y-71120801D01*
X77844211Y-71516222D01*
X78305671Y-71824559D01*
X78850000Y-71932833D01*
X79394329Y-71824559D01*
X79855789Y-71516222D01*
X80120000Y-71120801D01*
X80384211Y-71516222D01*
X80845671Y-71824559D01*
X81390000Y-71932833D01*
X81934329Y-71824559D01*
X82395789Y-71516222D01*
X82660000Y-71120801D01*
X82924211Y-71516222D01*
X83385671Y-71824559D01*
X83930000Y-71932833D01*
X84474329Y-71824559D01*
X84935789Y-71516222D01*
X85200000Y-71120801D01*
X85464211Y-71516222D01*
X85873000Y-71789365D01*
X85873000Y-86064602D01*
X85616890Y-85958524D01*
X85387000Y-86079845D01*
X85387000Y-87273000D01*
X85407000Y-87273000D01*
X85407000Y-87527000D01*
X85387000Y-87527000D01*
X85387000Y-88720155D01*
X85616890Y-88841476D01*
X85873000Y-88735398D01*
X85873000Y-89290000D01*
X55294092Y-89290000D01*
X53760984Y-87756892D01*
X83818514Y-87756892D01*
X84064817Y-88281358D01*
X84493076Y-88671645D01*
X84903110Y-88841476D01*
X85133000Y-88720155D01*
X85133000Y-87527000D01*
X83939181Y-87527000D01*
X83818514Y-87756892D01*
X53760984Y-87756892D01*
X53047200Y-87043108D01*
X83818514Y-87043108D01*
X83939181Y-87273000D01*
X85133000Y-87273000D01*
X85133000Y-86079845D01*
X84903110Y-85958524D01*
X84493076Y-86128355D01*
X84064817Y-86518642D01*
X83818514Y-87043108D01*
X53047200Y-87043108D01*
X50710000Y-84705908D01*
X50710000Y-84096828D01*
X76082777Y-84096828D01*
X76678556Y-84787641D01*
X78763537Y-85694265D01*
X81036758Y-85733989D01*
X83152142Y-84900765D01*
X83321444Y-84787641D01*
X83917223Y-84096828D01*
X80000000Y-80179605D01*
X76082777Y-84096828D01*
X50710000Y-84096828D01*
X50710000Y-80442619D01*
X61764613Y-80442619D01*
X62104155Y-81264372D01*
X62732321Y-81893636D01*
X63553481Y-82234611D01*
X64442619Y-82235387D01*
X65264372Y-81895845D01*
X65893636Y-81267679D01*
X65989522Y-81036758D01*
X74266011Y-81036758D01*
X75099235Y-83152142D01*
X75212359Y-83321444D01*
X75903172Y-83917223D01*
X79820395Y-80000000D01*
X80179605Y-80000000D01*
X84096828Y-83917223D01*
X84787641Y-83321444D01*
X85694265Y-81236463D01*
X85733989Y-78963242D01*
X84900765Y-76847858D01*
X84787641Y-76678556D01*
X84096828Y-76082777D01*
X80179605Y-80000000D01*
X79820395Y-80000000D01*
X75903172Y-76082777D01*
X75212359Y-76678556D01*
X74305735Y-78763537D01*
X74266011Y-81036758D01*
X65989522Y-81036758D01*
X66234611Y-80446519D01*
X66235387Y-79557381D01*
X65895845Y-78735628D01*
X65267679Y-78106364D01*
X64446519Y-77765389D01*
X63557381Y-77764613D01*
X62735628Y-78104155D01*
X62106364Y-78732321D01*
X61765389Y-79553481D01*
X61764613Y-80442619D01*
X50710000Y-80442619D01*
X50710000Y-75903172D01*
X76082777Y-75903172D01*
X80000000Y-79820395D01*
X83917223Y-75903172D01*
X83321444Y-75212359D01*
X81236463Y-74305735D01*
X78963242Y-74266011D01*
X76847858Y-75099235D01*
X76678556Y-75212359D01*
X76082777Y-75903172D01*
X50710000Y-75903172D01*
X50710000Y-70247000D01*
X54567600Y-70247000D01*
X54567600Y-70602600D01*
X54724475Y-71137262D01*
X55074014Y-71571191D01*
X55563004Y-71838327D01*
X55642940Y-71855010D01*
X55863000Y-71732852D01*
X55863000Y-70247000D01*
X54567600Y-70247000D01*
X50710000Y-70247000D01*
X50710000Y-69637400D01*
X54567600Y-69637400D01*
X54567600Y-69993000D01*
X55863000Y-69993000D01*
X55863000Y-68507148D01*
X55642940Y-68384990D01*
X55563004Y-68401673D01*
X55074014Y-68668809D01*
X54724475Y-69102738D01*
X54567600Y-69637400D01*
X50710000Y-69637400D01*
X50710000Y-61442619D01*
X63764613Y-61442619D01*
X64104155Y-62264372D01*
X64732321Y-62893636D01*
X65553481Y-63234611D01*
X66442619Y-63235387D01*
X67264372Y-62895845D01*
X67893636Y-62267679D01*
X68234611Y-61446519D01*
X68235387Y-60557381D01*
X67895845Y-59735628D01*
X67267679Y-59106364D01*
X66446519Y-58765389D01*
X65557381Y-58764613D01*
X64735628Y-59104155D01*
X64106364Y-59732321D01*
X63765389Y-60553481D01*
X63764613Y-61442619D01*
X50710000Y-61442619D01*
X50710000Y-55294092D01*
X55294092Y-50710000D01*
X85873000Y-50710000D01*
X85873000Y-53210635D01*
X85873000Y-53210635D01*
G37*
X85873000Y-53210635D02*
X85464211Y-53483778D01*
X85200000Y-53879199D01*
X84935789Y-53483778D01*
X84474329Y-53175441D01*
X83930000Y-53067167D01*
X83385671Y-53175441D01*
X82924211Y-53483778D01*
X82660000Y-53879199D01*
X82395789Y-53483778D01*
X81934329Y-53175441D01*
X81390000Y-53067167D01*
X80845671Y-53175441D01*
X80384211Y-53483778D01*
X80120000Y-53879199D01*
X79855789Y-53483778D01*
X79735000Y-53403070D01*
X79735000Y-53056822D01*
X79784838Y-52936799D01*
X79785162Y-52564833D01*
X79643117Y-52221057D01*
X79380327Y-51957808D01*
X79036799Y-51815162D01*
X78664833Y-51814838D01*
X78321057Y-51956883D01*
X78057808Y-52219673D01*
X77915162Y-52563201D01*
X77914838Y-52935167D01*
X77965000Y-53056569D01*
X77965000Y-53403070D01*
X77844211Y-53483778D01*
X77580000Y-53879199D01*
X77315789Y-53483778D01*
X76854329Y-53175441D01*
X76310000Y-53067167D01*
X75765671Y-53175441D01*
X75304211Y-53483778D01*
X75040000Y-53879199D01*
X74775789Y-53483778D01*
X74314329Y-53175441D01*
X73770000Y-53067167D01*
X73225671Y-53175441D01*
X72764211Y-53483778D01*
X72500000Y-53879199D01*
X72235789Y-53483778D01*
X71774329Y-53175441D01*
X71230000Y-53067167D01*
X70685671Y-53175441D01*
X70224211Y-53483778D01*
X69960000Y-53879199D01*
X69695789Y-53483778D01*
X69234329Y-53175441D01*
X68690000Y-53067167D01*
X68145671Y-53175441D01*
X67684211Y-53483778D01*
X67420000Y-53879199D01*
X67155789Y-53483778D01*
X66694329Y-53175441D01*
X66150000Y-53067167D01*
X65605671Y-53175441D01*
X65144211Y-53483778D01*
X64880000Y-53879199D01*
X64615789Y-53483778D01*
X64154329Y-53175441D01*
X63610000Y-53067167D01*
X63065671Y-53175441D01*
X62604211Y-53483778D01*
X62340000Y-53879199D01*
X62075789Y-53483778D01*
X61614329Y-53175441D01*
X61070000Y-53067167D01*
X60525671Y-53175441D01*
X60064211Y-53483778D01*
X59800000Y-53879199D01*
X59535789Y-53483778D01*
X59074329Y-53175441D01*
X58530000Y-53067167D01*
X57985671Y-53175441D01*
X57524211Y-53483778D01*
X57260000Y-53879199D01*
X56995789Y-53483778D01*
X56534329Y-53175441D01*
X55990000Y-53067167D01*
X55445671Y-53175441D01*
X54984211Y-53483778D01*
X54675874Y-53945238D01*
X54567600Y-54489567D01*
X54567600Y-55270433D01*
X54675874Y-55814762D01*
X54984211Y-56276222D01*
X55445671Y-56584559D01*
X55990000Y-56692833D01*
X56534329Y-56584559D01*
X56995789Y-56276222D01*
X57260000Y-55880801D01*
X57524211Y-56276222D01*
X57985671Y-56584559D01*
X58530000Y-56692833D01*
X59074329Y-56584559D01*
X59535789Y-56276222D01*
X59800000Y-55880801D01*
X60064211Y-56276222D01*
X60525671Y-56584559D01*
X61070000Y-56692833D01*
X61614329Y-56584559D01*
X62075789Y-56276222D01*
X62340000Y-55880801D01*
X62604211Y-56276222D01*
X63065671Y-56584559D01*
X63610000Y-56692833D01*
X64154329Y-56584559D01*
X64615789Y-56276222D01*
X64880000Y-55880801D01*
X65144211Y-56276222D01*
X65605671Y-56584559D01*
X66150000Y-56692833D01*
X66694329Y-56584559D01*
X67155789Y-56276222D01*
X67420000Y-55880801D01*
X67684211Y-56276222D01*
X68145671Y-56584559D01*
X68690000Y-56692833D01*
X69234329Y-56584559D01*
X69695789Y-56276222D01*
X69960000Y-55880801D01*
X70224211Y-56276222D01*
X70315000Y-56336885D01*
X70315000Y-65893178D01*
X70265162Y-66013201D01*
X70264838Y-66385167D01*
X70406883Y-66728943D01*
X70669673Y-66992192D01*
X71013201Y-67134838D01*
X71385167Y-67135162D01*
X71728943Y-66993117D01*
X71992192Y-66730327D01*
X72134838Y-66386799D01*
X72135162Y-66014833D01*
X72085000Y-65893431D01*
X72085000Y-56376976D01*
X72235789Y-56276222D01*
X72500000Y-55880801D01*
X72764211Y-56276222D01*
X72915000Y-56376976D01*
X72915000Y-63368178D01*
X72865162Y-63488201D01*
X72864838Y-63860167D01*
X73006883Y-64203943D01*
X73269673Y-64467192D01*
X73613201Y-64609838D01*
X73985167Y-64610162D01*
X74328943Y-64468117D01*
X74592192Y-64205327D01*
X74734838Y-63861799D01*
X74735162Y-63489833D01*
X74685000Y-63368431D01*
X74685000Y-56336885D01*
X74775789Y-56276222D01*
X75040000Y-55880801D01*
X75304211Y-56276222D01*
X75765671Y-56584559D01*
X76310000Y-56692833D01*
X76854329Y-56584559D01*
X77315789Y-56276222D01*
X77580000Y-55880801D01*
X77844211Y-56276222D01*
X78305671Y-56584559D01*
X78850000Y-56692833D01*
X79394329Y-56584559D01*
X79855789Y-56276222D01*
X80120000Y-55880801D01*
X80384211Y-56276222D01*
X80515000Y-56363612D01*
X80515000Y-60643178D01*
X80465162Y-60763201D01*
X80464838Y-61135167D01*
X80606883Y-61478943D01*
X80869673Y-61742192D01*
X81213201Y-61884838D01*
X81585167Y-61885162D01*
X81928943Y-61743117D01*
X82192192Y-61480327D01*
X82334838Y-61136799D01*
X82335162Y-60764833D01*
X82285000Y-60643431D01*
X82285000Y-56350249D01*
X82395789Y-56276222D01*
X82660000Y-55880801D01*
X82924211Y-56276222D01*
X83385671Y-56584559D01*
X83930000Y-56692833D01*
X84474329Y-56584559D01*
X84935789Y-56276222D01*
X85200000Y-55880801D01*
X85464211Y-56276222D01*
X85873000Y-56549365D01*
X85873000Y-68450635D01*
X85464211Y-68723778D01*
X85200000Y-69119199D01*
X84935789Y-68723778D01*
X84474329Y-68415441D01*
X83930000Y-68307167D01*
X83385671Y-68415441D01*
X82924211Y-68723778D01*
X82660000Y-69119199D01*
X82395789Y-68723778D01*
X81934329Y-68415441D01*
X81390000Y-68307167D01*
X80845671Y-68415441D01*
X80384211Y-68723778D01*
X80120000Y-69119199D01*
X79855789Y-68723778D01*
X79394329Y-68415441D01*
X78850000Y-68307167D01*
X78305671Y-68415441D01*
X77844211Y-68723778D01*
X77580000Y-69119199D01*
X77315789Y-68723778D01*
X76854329Y-68415441D01*
X76310000Y-68307167D01*
X75765671Y-68415441D01*
X75304211Y-68723778D01*
X75040000Y-69119199D01*
X74775789Y-68723778D01*
X74314329Y-68415441D01*
X73770000Y-68307167D01*
X73225671Y-68415441D01*
X72764211Y-68723778D01*
X72500000Y-69119199D01*
X72235789Y-68723778D01*
X71774329Y-68415441D01*
X71230000Y-68307167D01*
X70685671Y-68415441D01*
X70224211Y-68723778D01*
X69960000Y-69119199D01*
X69695789Y-68723778D01*
X69234329Y-68415441D01*
X68690000Y-68307167D01*
X68145671Y-68415441D01*
X67684211Y-68723778D01*
X67420000Y-69119199D01*
X67155789Y-68723778D01*
X66694329Y-68415441D01*
X66150000Y-68307167D01*
X65605671Y-68415441D01*
X65144211Y-68723778D01*
X64880000Y-69119199D01*
X64615789Y-68723778D01*
X64154329Y-68415441D01*
X63610000Y-68307167D01*
X63065671Y-68415441D01*
X62604211Y-68723778D01*
X62340000Y-69119199D01*
X62075789Y-68723778D01*
X61614329Y-68415441D01*
X61070000Y-68307167D01*
X60525671Y-68415441D01*
X60064211Y-68723778D01*
X59800000Y-69119199D01*
X59535789Y-68723778D01*
X59074329Y-68415441D01*
X58530000Y-68307167D01*
X57985671Y-68415441D01*
X57524211Y-68723778D01*
X57260246Y-69118830D01*
X57255525Y-69102738D01*
X56905986Y-68668809D01*
X56416996Y-68401673D01*
X56337060Y-68384990D01*
X56117000Y-68507148D01*
X56117000Y-69993000D01*
X56137000Y-69993000D01*
X56137000Y-70247000D01*
X56117000Y-70247000D01*
X56117000Y-71732852D01*
X56337060Y-71855010D01*
X56416996Y-71838327D01*
X56905986Y-71571191D01*
X57255525Y-71137262D01*
X57260246Y-71121170D01*
X57524211Y-71516222D01*
X57985671Y-71824559D01*
X58530000Y-71932833D01*
X59074329Y-71824559D01*
X59535789Y-71516222D01*
X59800000Y-71120801D01*
X60064211Y-71516222D01*
X60525671Y-71824559D01*
X61070000Y-71932833D01*
X61614329Y-71824559D01*
X62075789Y-71516222D01*
X62340000Y-71120801D01*
X62604211Y-71516222D01*
X63065671Y-71824559D01*
X63610000Y-71932833D01*
X64154329Y-71824559D01*
X64615789Y-71516222D01*
X64880000Y-71120801D01*
X65144211Y-71516222D01*
X65605671Y-71824559D01*
X66150000Y-71932833D01*
X66694329Y-71824559D01*
X67155789Y-71516222D01*
X67420000Y-71120801D01*
X67684211Y-71516222D01*
X68145671Y-71824559D01*
X68690000Y-71932833D01*
X69234329Y-71824559D01*
X69695789Y-71516222D01*
X69960000Y-71120801D01*
X70224211Y-71516222D01*
X70685671Y-71824559D01*
X71230000Y-71932833D01*
X71774329Y-71824559D01*
X72235789Y-71516222D01*
X72500000Y-71120801D01*
X72764211Y-71516222D01*
X73225671Y-71824559D01*
X73770000Y-71932833D01*
X74314329Y-71824559D01*
X74775789Y-71516222D01*
X75040000Y-71120801D01*
X75304211Y-71516222D01*
X75765671Y-71824559D01*
X76310000Y-71932833D01*
X76854329Y-71824559D01*
X77315789Y-71516222D01*
X77580000Y-71120801D01*
X77844211Y-71516222D01*
X78305671Y-71824559D01*
X78850000Y-71932833D01*
X79394329Y-71824559D01*
X79855789Y-71516222D01*
X80120000Y-71120801D01*
X80384211Y-71516222D01*
X80845671Y-71824559D01*
X81390000Y-71932833D01*
X81934329Y-71824559D01*
X82395789Y-71516222D01*
X82660000Y-71120801D01*
X82924211Y-71516222D01*
X83385671Y-71824559D01*
X83930000Y-71932833D01*
X84474329Y-71824559D01*
X84935789Y-71516222D01*
X85200000Y-71120801D01*
X85464211Y-71516222D01*
X85873000Y-71789365D01*
X85873000Y-86064602D01*
X85616890Y-85958524D01*
X85387000Y-86079845D01*
X85387000Y-87273000D01*
X85407000Y-87273000D01*
X85407000Y-87527000D01*
X85387000Y-87527000D01*
X85387000Y-88720155D01*
X85616890Y-88841476D01*
X85873000Y-88735398D01*
X85873000Y-89290000D01*
X55294092Y-89290000D01*
X53760984Y-87756892D01*
X83818514Y-87756892D01*
X84064817Y-88281358D01*
X84493076Y-88671645D01*
X84903110Y-88841476D01*
X85133000Y-88720155D01*
X85133000Y-87527000D01*
X83939181Y-87527000D01*
X83818514Y-87756892D01*
X53760984Y-87756892D01*
X53047200Y-87043108D01*
X83818514Y-87043108D01*
X83939181Y-87273000D01*
X85133000Y-87273000D01*
X85133000Y-86079845D01*
X84903110Y-85958524D01*
X84493076Y-86128355D01*
X84064817Y-86518642D01*
X83818514Y-87043108D01*
X53047200Y-87043108D01*
X50710000Y-84705908D01*
X50710000Y-84096828D01*
X76082777Y-84096828D01*
X76678556Y-84787641D01*
X78763537Y-85694265D01*
X81036758Y-85733989D01*
X83152142Y-84900765D01*
X83321444Y-84787641D01*
X83917223Y-84096828D01*
X80000000Y-80179605D01*
X76082777Y-84096828D01*
X50710000Y-84096828D01*
X50710000Y-80442619D01*
X61764613Y-80442619D01*
X62104155Y-81264372D01*
X62732321Y-81893636D01*
X63553481Y-82234611D01*
X64442619Y-82235387D01*
X65264372Y-81895845D01*
X65893636Y-81267679D01*
X65989522Y-81036758D01*
X74266011Y-81036758D01*
X75099235Y-83152142D01*
X75212359Y-83321444D01*
X75903172Y-83917223D01*
X79820395Y-80000000D01*
X80179605Y-80000000D01*
X84096828Y-83917223D01*
X84787641Y-83321444D01*
X85694265Y-81236463D01*
X85733989Y-78963242D01*
X84900765Y-76847858D01*
X84787641Y-76678556D01*
X84096828Y-76082777D01*
X80179605Y-80000000D01*
X79820395Y-80000000D01*
X75903172Y-76082777D01*
X75212359Y-76678556D01*
X74305735Y-78763537D01*
X74266011Y-81036758D01*
X65989522Y-81036758D01*
X66234611Y-80446519D01*
X66235387Y-79557381D01*
X65895845Y-78735628D01*
X65267679Y-78106364D01*
X64446519Y-77765389D01*
X63557381Y-77764613D01*
X62735628Y-78104155D01*
X62106364Y-78732321D01*
X61765389Y-79553481D01*
X61764613Y-80442619D01*
X50710000Y-80442619D01*
X50710000Y-75903172D01*
X76082777Y-75903172D01*
X80000000Y-79820395D01*
X83917223Y-75903172D01*
X83321444Y-75212359D01*
X81236463Y-74305735D01*
X78963242Y-74266011D01*
X76847858Y-75099235D01*
X76678556Y-75212359D01*
X76082777Y-75903172D01*
X50710000Y-75903172D01*
X50710000Y-70247000D01*
X54567600Y-70247000D01*
X54567600Y-70602600D01*
X54724475Y-71137262D01*
X55074014Y-71571191D01*
X55563004Y-71838327D01*
X55642940Y-71855010D01*
X55863000Y-71732852D01*
X55863000Y-70247000D01*
X54567600Y-70247000D01*
X50710000Y-70247000D01*
X50710000Y-69637400D01*
X54567600Y-69637400D01*
X54567600Y-69993000D01*
X55863000Y-69993000D01*
X55863000Y-68507148D01*
X55642940Y-68384990D01*
X55563004Y-68401673D01*
X55074014Y-68668809D01*
X54724475Y-69102738D01*
X54567600Y-69637400D01*
X50710000Y-69637400D01*
X50710000Y-61442619D01*
X63764613Y-61442619D01*
X64104155Y-62264372D01*
X64732321Y-62893636D01*
X65553481Y-63234611D01*
X66442619Y-63235387D01*
X67264372Y-62895845D01*
X67893636Y-62267679D01*
X68234611Y-61446519D01*
X68235387Y-60557381D01*
X67895845Y-59735628D01*
X67267679Y-59106364D01*
X66446519Y-58765389D01*
X65557381Y-58764613D01*
X64735628Y-59104155D01*
X64106364Y-59732321D01*
X63765389Y-60553481D01*
X63764613Y-61442619D01*
X50710000Y-61442619D01*
X50710000Y-55294092D01*
X55294092Y-50710000D01*
X85873000Y-50710000D01*
X85873000Y-53210635D01*
G36*
X135873000Y-72873000D02*
X87127000Y-72873000D01*
X87127000Y-71749275D01*
X87475789Y-71516222D01*
X87739754Y-71121170D01*
X87744475Y-71137262D01*
X88094014Y-71571191D01*
X88583004Y-71838327D01*
X88662940Y-71855010D01*
X88883000Y-71732852D01*
X88883000Y-70247000D01*
X88863000Y-70247000D01*
X88863000Y-69993000D01*
X88883000Y-69993000D01*
X88883000Y-68507148D01*
X89137000Y-68507148D01*
X89137000Y-69993000D01*
X89157000Y-69993000D01*
X89157000Y-70247000D01*
X89137000Y-70247000D01*
X89137000Y-71732852D01*
X89357060Y-71855010D01*
X89436996Y-71838327D01*
X89925986Y-71571191D01*
X90126347Y-71322456D01*
X90159438Y-71498317D01*
X90298510Y-71714441D01*
X90510710Y-71859431D01*
X90762600Y-71910440D01*
X92337400Y-71910440D01*
X92572717Y-71866162D01*
X92788841Y-71727090D01*
X92933831Y-71514890D01*
X92984840Y-71263000D01*
X92984840Y-68977000D01*
X92940562Y-68741683D01*
X92801490Y-68525559D01*
X92589290Y-68380569D01*
X92337400Y-68329560D01*
X90762600Y-68329560D01*
X90527283Y-68373838D01*
X90311159Y-68512910D01*
X90166169Y-68725110D01*
X90127029Y-68918390D01*
X89925986Y-68668809D01*
X89436996Y-68401673D01*
X89357060Y-68384990D01*
X89137000Y-68507148D01*
X88883000Y-68507148D01*
X88662940Y-68384990D01*
X88583004Y-68401673D01*
X88094014Y-68668809D01*
X87744475Y-69102738D01*
X87739754Y-69118830D01*
X87475789Y-68723778D01*
X87127000Y-68490725D01*
X87127000Y-56509275D01*
X87475789Y-56276222D01*
X87740000Y-55880801D01*
X88004211Y-56276222D01*
X88465671Y-56584559D01*
X89010000Y-56692833D01*
X89554329Y-56584559D01*
X90015789Y-56276222D01*
X90280000Y-55880801D01*
X90544211Y-56276222D01*
X90690000Y-56373635D01*
X90690000Y-59168178D01*
X90640162Y-59288201D01*
X90639838Y-59660167D01*
X90781883Y-60003943D01*
X91044673Y-60267192D01*
X91388201Y-60409838D01*
X91760167Y-60410162D01*
X92103943Y-60268117D01*
X92367192Y-60005327D01*
X92509838Y-59661799D01*
X92510162Y-59289833D01*
X92460000Y-59168431D01*
X92460000Y-56340226D01*
X92555789Y-56276222D01*
X92864126Y-55814762D01*
X92972400Y-55270433D01*
X92972400Y-54489567D01*
X92864126Y-53945238D01*
X92555789Y-53483778D01*
X92094329Y-53175441D01*
X91550000Y-53067167D01*
X91005671Y-53175441D01*
X90544211Y-53483778D01*
X90280000Y-53879199D01*
X90015789Y-53483778D01*
X89885000Y-53396388D01*
X89885000Y-52935167D01*
X93239838Y-52935167D01*
X93290000Y-53056569D01*
X93290000Y-69793178D01*
X93240162Y-69913201D01*
X93239838Y-70285167D01*
X93381883Y-70628943D01*
X93644673Y-70892192D01*
X93988201Y-71034838D01*
X94360167Y-71035162D01*
X94703943Y-70893117D01*
X94967192Y-70630327D01*
X95109838Y-70286799D01*
X95110162Y-69914833D01*
X95060000Y-69793431D01*
X95060000Y-57859026D01*
X102425042Y-57859026D01*
X102597312Y-58274947D01*
X102991510Y-58706821D01*
X103520973Y-58954968D01*
X103753000Y-58834469D01*
X103753000Y-57627000D01*
X102546183Y-57627000D01*
X102425042Y-57859026D01*
X95060000Y-57859026D01*
X95060000Y-54096400D01*
X102368960Y-54096400D01*
X102368960Y-55823600D01*
X102413238Y-56058917D01*
X102552310Y-56275041D01*
X102764510Y-56420031D01*
X102858375Y-56439039D01*
X102597312Y-56725053D01*
X102425042Y-57140974D01*
X102546183Y-57373000D01*
X103753000Y-57373000D01*
X103753000Y-57353000D01*
X104007000Y-57353000D01*
X104007000Y-57373000D01*
X104027000Y-57373000D01*
X104027000Y-57627000D01*
X104007000Y-57627000D01*
X104007000Y-58834469D01*
X104239027Y-58954968D01*
X104768490Y-58706821D01*
X105150008Y-58288839D01*
X105330971Y-58559670D01*
X105535000Y-58695998D01*
X105535000Y-60595013D01*
X105465162Y-60763201D01*
X105464838Y-61135167D01*
X105606883Y-61478943D01*
X105869673Y-61742192D01*
X106213201Y-61884838D01*
X106585167Y-61885162D01*
X106928943Y-61743117D01*
X107192192Y-61480327D01*
X107334838Y-61136799D01*
X107335162Y-60764833D01*
X107305000Y-60691835D01*
X107305000Y-58695998D01*
X107509029Y-58559670D01*
X107690000Y-58288828D01*
X107870971Y-58559670D01*
X108075000Y-58695998D01*
X108075000Y-59169096D01*
X108015162Y-59313201D01*
X108014838Y-59685167D01*
X108156883Y-60028943D01*
X108419673Y-60292192D01*
X108763201Y-60434838D01*
X109135167Y-60435162D01*
X109478943Y-60293117D01*
X109742192Y-60030327D01*
X109884838Y-59686799D01*
X109885162Y-59314833D01*
X109845000Y-59217633D01*
X109845000Y-58695998D01*
X110049029Y-58559670D01*
X110230000Y-58288828D01*
X110410971Y-58559670D01*
X110897152Y-58884526D01*
X111470641Y-58998600D01*
X111529359Y-58998600D01*
X112102848Y-58884526D01*
X112589029Y-58559670D01*
X112913885Y-58073489D01*
X113027959Y-57500000D01*
X112913885Y-56926511D01*
X112589029Y-56440330D01*
X112274248Y-56230000D01*
X112589029Y-56019670D01*
X112913885Y-55533489D01*
X113027959Y-54960000D01*
X112913885Y-54386511D01*
X112589029Y-53900330D01*
X112385000Y-53764002D01*
X112385000Y-52770907D01*
X119935000Y-52770907D01*
X119935000Y-52829093D01*
X120048039Y-53397378D01*
X120369946Y-53879147D01*
X120851715Y-54201054D01*
X121420000Y-54314093D01*
X121988285Y-54201054D01*
X122470054Y-53879147D01*
X122690000Y-53549974D01*
X122909946Y-53879147D01*
X123075000Y-53989432D01*
X123075000Y-63344096D01*
X123015162Y-63488201D01*
X123014838Y-63860167D01*
X123156883Y-64203943D01*
X123419673Y-64467192D01*
X123763201Y-64609838D01*
X124135167Y-64610162D01*
X124478943Y-64468117D01*
X124742192Y-64205327D01*
X124884838Y-63861799D01*
X124885162Y-63489833D01*
X124845000Y-63392633D01*
X124845000Y-53989432D01*
X125010054Y-53879147D01*
X125230000Y-53549974D01*
X125449946Y-53879147D01*
X125615000Y-53989432D01*
X125615000Y-65893178D01*
X125565162Y-66013201D01*
X125564838Y-66385167D01*
X125706883Y-66728943D01*
X125969673Y-66992192D01*
X126313201Y-67134838D01*
X126685167Y-67135162D01*
X127028943Y-66993117D01*
X127292192Y-66730327D01*
X127434838Y-66386799D01*
X127435162Y-66014833D01*
X127385000Y-65893431D01*
X127385000Y-53989432D01*
X127550054Y-53879147D01*
X127770000Y-53549974D01*
X127989946Y-53879147D01*
X128471715Y-54201054D01*
X129040000Y-54314093D01*
X129608285Y-54201054D01*
X130090054Y-53879147D01*
X130317702Y-53538447D01*
X130384817Y-53681358D01*
X130813076Y-54071645D01*
X131223110Y-54241476D01*
X131453000Y-54120155D01*
X131453000Y-52927000D01*
X131433000Y-52927000D01*
X131433000Y-52673000D01*
X131453000Y-52673000D01*
X131453000Y-51479845D01*
X131707000Y-51479845D01*
X131707000Y-52673000D01*
X131727000Y-52673000D01*
X131727000Y-52927000D01*
X131707000Y-52927000D01*
X131707000Y-54120155D01*
X131936890Y-54241476D01*
X132346924Y-54071645D01*
X132649937Y-53795499D01*
X132666838Y-53885317D01*
X132805910Y-54101441D01*
X133018110Y-54246431D01*
X133270000Y-54297440D01*
X134970000Y-54297440D01*
X135205317Y-54253162D01*
X135421441Y-54114090D01*
X135566431Y-53901890D01*
X135617440Y-53650000D01*
X135617440Y-51950000D01*
X135573162Y-51714683D01*
X135434090Y-51498559D01*
X135221890Y-51353569D01*
X134970000Y-51302560D01*
X133270000Y-51302560D01*
X133034683Y-51346838D01*
X132818559Y-51485910D01*
X132673569Y-51698110D01*
X132651699Y-51806107D01*
X132346924Y-51528355D01*
X131936890Y-51358524D01*
X131707000Y-51479845D01*
X131453000Y-51479845D01*
X131223110Y-51358524D01*
X130813076Y-51528355D01*
X130384817Y-51918642D01*
X130317702Y-52061553D01*
X130090054Y-51720853D01*
X129608285Y-51398946D01*
X129040000Y-51285907D01*
X128471715Y-51398946D01*
X127989946Y-51720853D01*
X127770000Y-52050026D01*
X127550054Y-51720853D01*
X127068285Y-51398946D01*
X126500000Y-51285907D01*
X125931715Y-51398946D01*
X125449946Y-51720853D01*
X125230000Y-52050026D01*
X125010054Y-51720853D01*
X124528285Y-51398946D01*
X123960000Y-51285907D01*
X123391715Y-51398946D01*
X122909946Y-51720853D01*
X122690000Y-52050026D01*
X122470054Y-51720853D01*
X121988285Y-51398946D01*
X121420000Y-51285907D01*
X120851715Y-51398946D01*
X120369946Y-51720853D01*
X120048039Y-52202622D01*
X119935000Y-52770907D01*
X112385000Y-52770907D01*
X112385000Y-52056822D01*
X112434838Y-51936799D01*
X112435162Y-51564833D01*
X112293117Y-51221057D01*
X112030327Y-50957808D01*
X111686799Y-50815162D01*
X111314833Y-50814838D01*
X110971057Y-50956883D01*
X110707808Y-51219673D01*
X110565162Y-51563201D01*
X110564838Y-51935167D01*
X110615000Y-52056569D01*
X110615000Y-53764002D01*
X110410971Y-53900330D01*
X110230000Y-54171172D01*
X110049029Y-53900330D01*
X109845000Y-53764002D01*
X109845000Y-53032739D01*
X109884838Y-52936799D01*
X109885162Y-52564833D01*
X109743117Y-52221057D01*
X109480327Y-51957808D01*
X109136799Y-51815162D01*
X108764833Y-51814838D01*
X108421057Y-51956883D01*
X108157808Y-52219673D01*
X108015162Y-52563201D01*
X108014838Y-52935167D01*
X108075000Y-53080771D01*
X108075000Y-53764002D01*
X107870971Y-53900330D01*
X107690000Y-54171172D01*
X107509029Y-53900330D01*
X107022848Y-53575474D01*
X106449359Y-53461400D01*
X106390641Y-53461400D01*
X105817152Y-53575474D01*
X105351558Y-53886574D01*
X105346762Y-53861083D01*
X105207690Y-53644959D01*
X104995490Y-53499969D01*
X104743600Y-53448960D01*
X103016400Y-53448960D01*
X102781083Y-53493238D01*
X102564959Y-53632310D01*
X102419969Y-53844510D01*
X102368960Y-54096400D01*
X95060000Y-54096400D01*
X95060000Y-53056822D01*
X95109838Y-52936799D01*
X95110162Y-52564833D01*
X94968117Y-52221057D01*
X94705327Y-51957808D01*
X94361799Y-51815162D01*
X93989833Y-51814838D01*
X93646057Y-51956883D01*
X93382808Y-52219673D01*
X93240162Y-52563201D01*
X93239838Y-52935167D01*
X89885000Y-52935167D01*
X89885000Y-52056822D01*
X89934838Y-51936799D01*
X89935162Y-51564833D01*
X89793117Y-51221057D01*
X89530327Y-50957808D01*
X89186799Y-50815162D01*
X88814833Y-50814838D01*
X88471057Y-50956883D01*
X88207808Y-51219673D01*
X88065162Y-51563201D01*
X88064838Y-51935167D01*
X88115000Y-52056569D01*
X88115000Y-53409751D01*
X88004211Y-53483778D01*
X87740000Y-53879199D01*
X87475789Y-53483778D01*
X87127000Y-53250725D01*
X87127000Y-50710000D01*
X135873000Y-50710000D01*
X135873000Y-72873000D01*
X135873000Y-72873000D01*
G37*
X135873000Y-72873000D02*
X87127000Y-72873000D01*
X87127000Y-71749275D01*
X87475789Y-71516222D01*
X87739754Y-71121170D01*
X87744475Y-71137262D01*
X88094014Y-71571191D01*
X88583004Y-71838327D01*
X88662940Y-71855010D01*
X88883000Y-71732852D01*
X88883000Y-70247000D01*
X88863000Y-70247000D01*
X88863000Y-69993000D01*
X88883000Y-69993000D01*
X88883000Y-68507148D01*
X89137000Y-68507148D01*
X89137000Y-69993000D01*
X89157000Y-69993000D01*
X89157000Y-70247000D01*
X89137000Y-70247000D01*
X89137000Y-71732852D01*
X89357060Y-71855010D01*
X89436996Y-71838327D01*
X89925986Y-71571191D01*
X90126347Y-71322456D01*
X90159438Y-71498317D01*
X90298510Y-71714441D01*
X90510710Y-71859431D01*
X90762600Y-71910440D01*
X92337400Y-71910440D01*
X92572717Y-71866162D01*
X92788841Y-71727090D01*
X92933831Y-71514890D01*
X92984840Y-71263000D01*
X92984840Y-68977000D01*
X92940562Y-68741683D01*
X92801490Y-68525559D01*
X92589290Y-68380569D01*
X92337400Y-68329560D01*
X90762600Y-68329560D01*
X90527283Y-68373838D01*
X90311159Y-68512910D01*
X90166169Y-68725110D01*
X90127029Y-68918390D01*
X89925986Y-68668809D01*
X89436996Y-68401673D01*
X89357060Y-68384990D01*
X89137000Y-68507148D01*
X88883000Y-68507148D01*
X88662940Y-68384990D01*
X88583004Y-68401673D01*
X88094014Y-68668809D01*
X87744475Y-69102738D01*
X87739754Y-69118830D01*
X87475789Y-68723778D01*
X87127000Y-68490725D01*
X87127000Y-56509275D01*
X87475789Y-56276222D01*
X87740000Y-55880801D01*
X88004211Y-56276222D01*
X88465671Y-56584559D01*
X89010000Y-56692833D01*
X89554329Y-56584559D01*
X90015789Y-56276222D01*
X90280000Y-55880801D01*
X90544211Y-56276222D01*
X90690000Y-56373635D01*
X90690000Y-59168178D01*
X90640162Y-59288201D01*
X90639838Y-59660167D01*
X90781883Y-60003943D01*
X91044673Y-60267192D01*
X91388201Y-60409838D01*
X91760167Y-60410162D01*
X92103943Y-60268117D01*
X92367192Y-60005327D01*
X92509838Y-59661799D01*
X92510162Y-59289833D01*
X92460000Y-59168431D01*
X92460000Y-56340226D01*
X92555789Y-56276222D01*
X92864126Y-55814762D01*
X92972400Y-55270433D01*
X92972400Y-54489567D01*
X92864126Y-53945238D01*
X92555789Y-53483778D01*
X92094329Y-53175441D01*
X91550000Y-53067167D01*
X91005671Y-53175441D01*
X90544211Y-53483778D01*
X90280000Y-53879199D01*
X90015789Y-53483778D01*
X89885000Y-53396388D01*
X89885000Y-52935167D01*
X93239838Y-52935167D01*
X93290000Y-53056569D01*
X93290000Y-69793178D01*
X93240162Y-69913201D01*
X93239838Y-70285167D01*
X93381883Y-70628943D01*
X93644673Y-70892192D01*
X93988201Y-71034838D01*
X94360167Y-71035162D01*
X94703943Y-70893117D01*
X94967192Y-70630327D01*
X95109838Y-70286799D01*
X95110162Y-69914833D01*
X95060000Y-69793431D01*
X95060000Y-57859026D01*
X102425042Y-57859026D01*
X102597312Y-58274947D01*
X102991510Y-58706821D01*
X103520973Y-58954968D01*
X103753000Y-58834469D01*
X103753000Y-57627000D01*
X102546183Y-57627000D01*
X102425042Y-57859026D01*
X95060000Y-57859026D01*
X95060000Y-54096400D01*
X102368960Y-54096400D01*
X102368960Y-55823600D01*
X102413238Y-56058917D01*
X102552310Y-56275041D01*
X102764510Y-56420031D01*
X102858375Y-56439039D01*
X102597312Y-56725053D01*
X102425042Y-57140974D01*
X102546183Y-57373000D01*
X103753000Y-57373000D01*
X103753000Y-57353000D01*
X104007000Y-57353000D01*
X104007000Y-57373000D01*
X104027000Y-57373000D01*
X104027000Y-57627000D01*
X104007000Y-57627000D01*
X104007000Y-58834469D01*
X104239027Y-58954968D01*
X104768490Y-58706821D01*
X105150008Y-58288839D01*
X105330971Y-58559670D01*
X105535000Y-58695998D01*
X105535000Y-60595013D01*
X105465162Y-60763201D01*
X105464838Y-61135167D01*
X105606883Y-61478943D01*
X105869673Y-61742192D01*
X106213201Y-61884838D01*
X106585167Y-61885162D01*
X106928943Y-61743117D01*
X107192192Y-61480327D01*
X107334838Y-61136799D01*
X107335162Y-60764833D01*
X107305000Y-60691835D01*
X107305000Y-58695998D01*
X107509029Y-58559670D01*
X107690000Y-58288828D01*
X107870971Y-58559670D01*
X108075000Y-58695998D01*
X108075000Y-59169096D01*
X108015162Y-59313201D01*
X108014838Y-59685167D01*
X108156883Y-60028943D01*
X108419673Y-60292192D01*
X108763201Y-60434838D01*
X109135167Y-60435162D01*
X109478943Y-60293117D01*
X109742192Y-60030327D01*
X109884838Y-59686799D01*
X109885162Y-59314833D01*
X109845000Y-59217633D01*
X109845000Y-58695998D01*
X110049029Y-58559670D01*
X110230000Y-58288828D01*
X110410971Y-58559670D01*
X110897152Y-58884526D01*
X111470641Y-58998600D01*
X111529359Y-58998600D01*
X112102848Y-58884526D01*
X112589029Y-58559670D01*
X112913885Y-58073489D01*
X113027959Y-57500000D01*
X112913885Y-56926511D01*
X112589029Y-56440330D01*
X112274248Y-56230000D01*
X112589029Y-56019670D01*
X112913885Y-55533489D01*
X113027959Y-54960000D01*
X112913885Y-54386511D01*
X112589029Y-53900330D01*
X112385000Y-53764002D01*
X112385000Y-52770907D01*
X119935000Y-52770907D01*
X119935000Y-52829093D01*
X120048039Y-53397378D01*
X120369946Y-53879147D01*
X120851715Y-54201054D01*
X121420000Y-54314093D01*
X121988285Y-54201054D01*
X122470054Y-53879147D01*
X122690000Y-53549974D01*
X122909946Y-53879147D01*
X123075000Y-53989432D01*
X123075000Y-63344096D01*
X123015162Y-63488201D01*
X123014838Y-63860167D01*
X123156883Y-64203943D01*
X123419673Y-64467192D01*
X123763201Y-64609838D01*
X124135167Y-64610162D01*
X124478943Y-64468117D01*
X124742192Y-64205327D01*
X124884838Y-63861799D01*
X124885162Y-63489833D01*
X124845000Y-63392633D01*
X124845000Y-53989432D01*
X125010054Y-53879147D01*
X125230000Y-53549974D01*
X125449946Y-53879147D01*
X125615000Y-53989432D01*
X125615000Y-65893178D01*
X125565162Y-66013201D01*
X125564838Y-66385167D01*
X125706883Y-66728943D01*
X125969673Y-66992192D01*
X126313201Y-67134838D01*
X126685167Y-67135162D01*
X127028943Y-66993117D01*
X127292192Y-66730327D01*
X127434838Y-66386799D01*
X127435162Y-66014833D01*
X127385000Y-65893431D01*
X127385000Y-53989432D01*
X127550054Y-53879147D01*
X127770000Y-53549974D01*
X127989946Y-53879147D01*
X128471715Y-54201054D01*
X129040000Y-54314093D01*
X129608285Y-54201054D01*
X130090054Y-53879147D01*
X130317702Y-53538447D01*
X130384817Y-53681358D01*
X130813076Y-54071645D01*
X131223110Y-54241476D01*
X131453000Y-54120155D01*
X131453000Y-52927000D01*
X131433000Y-52927000D01*
X131433000Y-52673000D01*
X131453000Y-52673000D01*
X131453000Y-51479845D01*
X131707000Y-51479845D01*
X131707000Y-52673000D01*
X131727000Y-52673000D01*
X131727000Y-52927000D01*
X131707000Y-52927000D01*
X131707000Y-54120155D01*
X131936890Y-54241476D01*
X132346924Y-54071645D01*
X132649937Y-53795499D01*
X132666838Y-53885317D01*
X132805910Y-54101441D01*
X133018110Y-54246431D01*
X133270000Y-54297440D01*
X134970000Y-54297440D01*
X135205317Y-54253162D01*
X135421441Y-54114090D01*
X135566431Y-53901890D01*
X135617440Y-53650000D01*
X135617440Y-51950000D01*
X135573162Y-51714683D01*
X135434090Y-51498559D01*
X135221890Y-51353569D01*
X134970000Y-51302560D01*
X133270000Y-51302560D01*
X133034683Y-51346838D01*
X132818559Y-51485910D01*
X132673569Y-51698110D01*
X132651699Y-51806107D01*
X132346924Y-51528355D01*
X131936890Y-51358524D01*
X131707000Y-51479845D01*
X131453000Y-51479845D01*
X131223110Y-51358524D01*
X130813076Y-51528355D01*
X130384817Y-51918642D01*
X130317702Y-52061553D01*
X130090054Y-51720853D01*
X129608285Y-51398946D01*
X129040000Y-51285907D01*
X128471715Y-51398946D01*
X127989946Y-51720853D01*
X127770000Y-52050026D01*
X127550054Y-51720853D01*
X127068285Y-51398946D01*
X126500000Y-51285907D01*
X125931715Y-51398946D01*
X125449946Y-51720853D01*
X125230000Y-52050026D01*
X125010054Y-51720853D01*
X124528285Y-51398946D01*
X123960000Y-51285907D01*
X123391715Y-51398946D01*
X122909946Y-51720853D01*
X122690000Y-52050026D01*
X122470054Y-51720853D01*
X121988285Y-51398946D01*
X121420000Y-51285907D01*
X120851715Y-51398946D01*
X120369946Y-51720853D01*
X120048039Y-52202622D01*
X119935000Y-52770907D01*
X112385000Y-52770907D01*
X112385000Y-52056822D01*
X112434838Y-51936799D01*
X112435162Y-51564833D01*
X112293117Y-51221057D01*
X112030327Y-50957808D01*
X111686799Y-50815162D01*
X111314833Y-50814838D01*
X110971057Y-50956883D01*
X110707808Y-51219673D01*
X110565162Y-51563201D01*
X110564838Y-51935167D01*
X110615000Y-52056569D01*
X110615000Y-53764002D01*
X110410971Y-53900330D01*
X110230000Y-54171172D01*
X110049029Y-53900330D01*
X109845000Y-53764002D01*
X109845000Y-53032739D01*
X109884838Y-52936799D01*
X109885162Y-52564833D01*
X109743117Y-52221057D01*
X109480327Y-51957808D01*
X109136799Y-51815162D01*
X108764833Y-51814838D01*
X108421057Y-51956883D01*
X108157808Y-52219673D01*
X108015162Y-52563201D01*
X108014838Y-52935167D01*
X108075000Y-53080771D01*
X108075000Y-53764002D01*
X107870971Y-53900330D01*
X107690000Y-54171172D01*
X107509029Y-53900330D01*
X107022848Y-53575474D01*
X106449359Y-53461400D01*
X106390641Y-53461400D01*
X105817152Y-53575474D01*
X105351558Y-53886574D01*
X105346762Y-53861083D01*
X105207690Y-53644959D01*
X104995490Y-53499969D01*
X104743600Y-53448960D01*
X103016400Y-53448960D01*
X102781083Y-53493238D01*
X102564959Y-53632310D01*
X102419969Y-53844510D01*
X102368960Y-54096400D01*
X95060000Y-54096400D01*
X95060000Y-53056822D01*
X95109838Y-52936799D01*
X95110162Y-52564833D01*
X94968117Y-52221057D01*
X94705327Y-51957808D01*
X94361799Y-51815162D01*
X93989833Y-51814838D01*
X93646057Y-51956883D01*
X93382808Y-52219673D01*
X93240162Y-52563201D01*
X93239838Y-52935167D01*
X89885000Y-52935167D01*
X89885000Y-52056822D01*
X89934838Y-51936799D01*
X89935162Y-51564833D01*
X89793117Y-51221057D01*
X89530327Y-50957808D01*
X89186799Y-50815162D01*
X88814833Y-50814838D01*
X88471057Y-50956883D01*
X88207808Y-51219673D01*
X88065162Y-51563201D01*
X88064838Y-51935167D01*
X88115000Y-52056569D01*
X88115000Y-53409751D01*
X88004211Y-53483778D01*
X87740000Y-53879199D01*
X87475789Y-53483778D01*
X87127000Y-53250725D01*
X87127000Y-50710000D01*
X135873000Y-50710000D01*
X135873000Y-72873000D01*
G36*
X148815550Y-54819642D02*
X148540848Y-54765000D01*
X147359152Y-54765000D01*
X146771733Y-54881845D01*
X146273743Y-55214591D01*
X145940997Y-55712581D01*
X145824152Y-56300000D01*
X145940997Y-56887419D01*
X146273743Y-57385409D01*
X146771733Y-57718155D01*
X147359152Y-57835000D01*
X148540848Y-57835000D01*
X149128267Y-57718155D01*
X149290000Y-57610089D01*
X149290000Y-62389911D01*
X149128267Y-62281845D01*
X148540848Y-62165000D01*
X147359152Y-62165000D01*
X146771733Y-62281845D01*
X146273743Y-62614591D01*
X145940997Y-63112581D01*
X145824152Y-63700000D01*
X145940997Y-64287419D01*
X146273743Y-64785409D01*
X146771733Y-65118155D01*
X147359152Y-65235000D01*
X148540848Y-65235000D01*
X149128267Y-65118155D01*
X149290000Y-65010089D01*
X149290000Y-84705908D01*
X144705908Y-89290000D01*
X87127000Y-89290000D01*
X87127000Y-88885000D01*
X87514250Y-88885000D01*
X87673000Y-88726250D01*
X87673000Y-87527000D01*
X87927000Y-87527000D01*
X87927000Y-88726250D01*
X88085750Y-88885000D01*
X88776310Y-88885000D01*
X89009699Y-88788327D01*
X89188327Y-88609698D01*
X89285000Y-88376309D01*
X89285000Y-87685750D01*
X89126250Y-87527000D01*
X87927000Y-87527000D01*
X87673000Y-87527000D01*
X87653000Y-87527000D01*
X87653000Y-87273000D01*
X87673000Y-87273000D01*
X87673000Y-86073750D01*
X87927000Y-86073750D01*
X87927000Y-87273000D01*
X89126250Y-87273000D01*
X89285000Y-87114250D01*
X89285000Y-86423691D01*
X89188327Y-86190302D01*
X89009699Y-86011673D01*
X88776310Y-85915000D01*
X88085750Y-85915000D01*
X87927000Y-86073750D01*
X87673000Y-86073750D01*
X87514250Y-85915000D01*
X87127000Y-85915000D01*
X87127000Y-84096828D01*
X91082777Y-84096828D01*
X91678556Y-84787641D01*
X93763537Y-85694265D01*
X96036758Y-85733989D01*
X98152142Y-84900765D01*
X98321444Y-84787641D01*
X98917223Y-84096828D01*
X95000000Y-80179605D01*
X91082777Y-84096828D01*
X87127000Y-84096828D01*
X87127000Y-81036758D01*
X89266011Y-81036758D01*
X90099235Y-83152142D01*
X90212359Y-83321444D01*
X90903172Y-83917223D01*
X94820395Y-80000000D01*
X95179605Y-80000000D01*
X99096828Y-83917223D01*
X99787641Y-83321444D01*
X100694265Y-81236463D01*
X100733989Y-78963242D01*
X99900765Y-76847858D01*
X99787641Y-76678556D01*
X99514070Y-76442619D01*
X137764613Y-76442619D01*
X138104155Y-77264372D01*
X138732321Y-77893636D01*
X139553481Y-78234611D01*
X140442619Y-78235387D01*
X141264372Y-77895845D01*
X141893636Y-77267679D01*
X142234611Y-76446519D01*
X142235387Y-75557381D01*
X141895845Y-74735628D01*
X141267679Y-74106364D01*
X140446519Y-73765389D01*
X139557381Y-73764613D01*
X138735628Y-74104155D01*
X138106364Y-74732321D01*
X137765389Y-75553481D01*
X137764613Y-76442619D01*
X99514070Y-76442619D01*
X99096828Y-76082777D01*
X95179605Y-80000000D01*
X94820395Y-80000000D01*
X90903172Y-76082777D01*
X90212359Y-76678556D01*
X89305735Y-78763537D01*
X89266011Y-81036758D01*
X87127000Y-81036758D01*
X87127000Y-75127000D01*
X91806305Y-75127000D01*
X91678556Y-75212359D01*
X91082777Y-75903172D01*
X95000000Y-79820395D01*
X98917223Y-75903172D01*
X98321444Y-75212359D01*
X98125142Y-75127000D01*
X137000000Y-75127000D01*
X137049410Y-75116994D01*
X137091035Y-75088553D01*
X137118315Y-75046159D01*
X137127000Y-75000000D01*
X137127000Y-63700000D01*
X141074152Y-63700000D01*
X141190997Y-64287419D01*
X141523743Y-64785409D01*
X142021733Y-65118155D01*
X142609152Y-65235000D01*
X143790848Y-65235000D01*
X144378267Y-65118155D01*
X144876257Y-64785409D01*
X145209003Y-64287419D01*
X145325848Y-63700000D01*
X145209003Y-63112581D01*
X144876257Y-62614591D01*
X144610454Y-62436987D01*
X144801441Y-62314090D01*
X144946431Y-62101890D01*
X144997440Y-61850000D01*
X144997440Y-61350000D01*
X144968179Y-61194493D01*
X144997440Y-61050000D01*
X144997440Y-60550000D01*
X144968179Y-60394493D01*
X144997440Y-60250000D01*
X144997440Y-59750000D01*
X144968179Y-59594493D01*
X144997440Y-59450000D01*
X144997440Y-58950000D01*
X144971081Y-58809913D01*
X144985000Y-58776309D01*
X144985000Y-58683750D01*
X144839866Y-58538616D01*
X144814090Y-58498559D01*
X144601890Y-58353569D01*
X144350000Y-58302560D01*
X142050000Y-58302560D01*
X141814683Y-58346838D01*
X141598559Y-58485910D01*
X141567751Y-58530999D01*
X141415000Y-58683750D01*
X141415000Y-58776309D01*
X141430269Y-58813171D01*
X141402560Y-58950000D01*
X141402560Y-59450000D01*
X141431821Y-59605507D01*
X141402560Y-59750000D01*
X141402560Y-60250000D01*
X141431821Y-60405507D01*
X141402560Y-60550000D01*
X141402560Y-61050000D01*
X141431821Y-61205507D01*
X141402560Y-61350000D01*
X141402560Y-61850000D01*
X141446838Y-62085317D01*
X141585910Y-62301441D01*
X141786888Y-62438763D01*
X141523743Y-62614591D01*
X141190997Y-63112581D01*
X141074152Y-63700000D01*
X137127000Y-63700000D01*
X137127000Y-56300000D01*
X141074152Y-56300000D01*
X141190997Y-56887419D01*
X141523743Y-57385409D01*
X141796523Y-57567674D01*
X141690301Y-57611673D01*
X141511673Y-57790302D01*
X141415000Y-58023691D01*
X141415000Y-58116250D01*
X141573750Y-58275000D01*
X143073000Y-58275000D01*
X143073000Y-58253000D01*
X143327000Y-58253000D01*
X143327000Y-58275000D01*
X144826250Y-58275000D01*
X144985000Y-58116250D01*
X144985000Y-58023691D01*
X144888327Y-57790302D01*
X144709699Y-57611673D01*
X144603477Y-57567674D01*
X144876257Y-57385409D01*
X145209003Y-56887419D01*
X145325848Y-56300000D01*
X145209003Y-55712581D01*
X144876257Y-55214591D01*
X144378267Y-54881845D01*
X143790848Y-54765000D01*
X142609152Y-54765000D01*
X142021733Y-54881845D01*
X141523743Y-55214591D01*
X141190997Y-55712581D01*
X141074152Y-56300000D01*
X137127000Y-56300000D01*
X137127000Y-50710000D01*
X144705908Y-50710000D01*
X148815550Y-54819642D01*
X148815550Y-54819642D01*
G37*
X148815550Y-54819642D02*
X148540848Y-54765000D01*
X147359152Y-54765000D01*
X146771733Y-54881845D01*
X146273743Y-55214591D01*
X145940997Y-55712581D01*
X145824152Y-56300000D01*
X145940997Y-56887419D01*
X146273743Y-57385409D01*
X146771733Y-57718155D01*
X147359152Y-57835000D01*
X148540848Y-57835000D01*
X149128267Y-57718155D01*
X149290000Y-57610089D01*
X149290000Y-62389911D01*
X149128267Y-62281845D01*
X148540848Y-62165000D01*
X147359152Y-62165000D01*
X146771733Y-62281845D01*
X146273743Y-62614591D01*
X145940997Y-63112581D01*
X145824152Y-63700000D01*
X145940997Y-64287419D01*
X146273743Y-64785409D01*
X146771733Y-65118155D01*
X147359152Y-65235000D01*
X148540848Y-65235000D01*
X149128267Y-65118155D01*
X149290000Y-65010089D01*
X149290000Y-84705908D01*
X144705908Y-89290000D01*
X87127000Y-89290000D01*
X87127000Y-88885000D01*
X87514250Y-88885000D01*
X87673000Y-88726250D01*
X87673000Y-87527000D01*
X87927000Y-87527000D01*
X87927000Y-88726250D01*
X88085750Y-88885000D01*
X88776310Y-88885000D01*
X89009699Y-88788327D01*
X89188327Y-88609698D01*
X89285000Y-88376309D01*
X89285000Y-87685750D01*
X89126250Y-87527000D01*
X87927000Y-87527000D01*
X87673000Y-87527000D01*
X87653000Y-87527000D01*
X87653000Y-87273000D01*
X87673000Y-87273000D01*
X87673000Y-86073750D01*
X87927000Y-86073750D01*
X87927000Y-87273000D01*
X89126250Y-87273000D01*
X89285000Y-87114250D01*
X89285000Y-86423691D01*
X89188327Y-86190302D01*
X89009699Y-86011673D01*
X88776310Y-85915000D01*
X88085750Y-85915000D01*
X87927000Y-86073750D01*
X87673000Y-86073750D01*
X87514250Y-85915000D01*
X87127000Y-85915000D01*
X87127000Y-84096828D01*
X91082777Y-84096828D01*
X91678556Y-84787641D01*
X93763537Y-85694265D01*
X96036758Y-85733989D01*
X98152142Y-84900765D01*
X98321444Y-84787641D01*
X98917223Y-84096828D01*
X95000000Y-80179605D01*
X91082777Y-84096828D01*
X87127000Y-84096828D01*
X87127000Y-81036758D01*
X89266011Y-81036758D01*
X90099235Y-83152142D01*
X90212359Y-83321444D01*
X90903172Y-83917223D01*
X94820395Y-80000000D01*
X95179605Y-80000000D01*
X99096828Y-83917223D01*
X99787641Y-83321444D01*
X100694265Y-81236463D01*
X100733989Y-78963242D01*
X99900765Y-76847858D01*
X99787641Y-76678556D01*
X99514070Y-76442619D01*
X137764613Y-76442619D01*
X138104155Y-77264372D01*
X138732321Y-77893636D01*
X139553481Y-78234611D01*
X140442619Y-78235387D01*
X141264372Y-77895845D01*
X141893636Y-77267679D01*
X142234611Y-76446519D01*
X142235387Y-75557381D01*
X141895845Y-74735628D01*
X141267679Y-74106364D01*
X140446519Y-73765389D01*
X139557381Y-73764613D01*
X138735628Y-74104155D01*
X138106364Y-74732321D01*
X137765389Y-75553481D01*
X137764613Y-76442619D01*
X99514070Y-76442619D01*
X99096828Y-76082777D01*
X95179605Y-80000000D01*
X94820395Y-80000000D01*
X90903172Y-76082777D01*
X90212359Y-76678556D01*
X89305735Y-78763537D01*
X89266011Y-81036758D01*
X87127000Y-81036758D01*
X87127000Y-75127000D01*
X91806305Y-75127000D01*
X91678556Y-75212359D01*
X91082777Y-75903172D01*
X95000000Y-79820395D01*
X98917223Y-75903172D01*
X98321444Y-75212359D01*
X98125142Y-75127000D01*
X137000000Y-75127000D01*
X137049410Y-75116994D01*
X137091035Y-75088553D01*
X137118315Y-75046159D01*
X137127000Y-75000000D01*
X137127000Y-63700000D01*
X141074152Y-63700000D01*
X141190997Y-64287419D01*
X141523743Y-64785409D01*
X142021733Y-65118155D01*
X142609152Y-65235000D01*
X143790848Y-65235000D01*
X144378267Y-65118155D01*
X144876257Y-64785409D01*
X145209003Y-64287419D01*
X145325848Y-63700000D01*
X145209003Y-63112581D01*
X144876257Y-62614591D01*
X144610454Y-62436987D01*
X144801441Y-62314090D01*
X144946431Y-62101890D01*
X144997440Y-61850000D01*
X144997440Y-61350000D01*
X144968179Y-61194493D01*
X144997440Y-61050000D01*
X144997440Y-60550000D01*
X144968179Y-60394493D01*
X144997440Y-60250000D01*
X144997440Y-59750000D01*
X144968179Y-59594493D01*
X144997440Y-59450000D01*
X144997440Y-58950000D01*
X144971081Y-58809913D01*
X144985000Y-58776309D01*
X144985000Y-58683750D01*
X144839866Y-58538616D01*
X144814090Y-58498559D01*
X144601890Y-58353569D01*
X144350000Y-58302560D01*
X142050000Y-58302560D01*
X141814683Y-58346838D01*
X141598559Y-58485910D01*
X141567751Y-58530999D01*
X141415000Y-58683750D01*
X141415000Y-58776309D01*
X141430269Y-58813171D01*
X141402560Y-58950000D01*
X141402560Y-59450000D01*
X141431821Y-59605507D01*
X141402560Y-59750000D01*
X141402560Y-60250000D01*
X141431821Y-60405507D01*
X141402560Y-60550000D01*
X141402560Y-61050000D01*
X141431821Y-61205507D01*
X141402560Y-61350000D01*
X141402560Y-61850000D01*
X141446838Y-62085317D01*
X141585910Y-62301441D01*
X141786888Y-62438763D01*
X141523743Y-62614591D01*
X141190997Y-63112581D01*
X141074152Y-63700000D01*
X137127000Y-63700000D01*
X137127000Y-56300000D01*
X141074152Y-56300000D01*
X141190997Y-56887419D01*
X141523743Y-57385409D01*
X141796523Y-57567674D01*
X141690301Y-57611673D01*
X141511673Y-57790302D01*
X141415000Y-58023691D01*
X141415000Y-58116250D01*
X141573750Y-58275000D01*
X143073000Y-58275000D01*
X143073000Y-58253000D01*
X143327000Y-58253000D01*
X143327000Y-58275000D01*
X144826250Y-58275000D01*
X144985000Y-58116250D01*
X144985000Y-58023691D01*
X144888327Y-57790302D01*
X144709699Y-57611673D01*
X144603477Y-57567674D01*
X144876257Y-57385409D01*
X145209003Y-56887419D01*
X145325848Y-56300000D01*
X145209003Y-55712581D01*
X144876257Y-55214591D01*
X144378267Y-54881845D01*
X143790848Y-54765000D01*
X142609152Y-54765000D01*
X142021733Y-54881845D01*
X141523743Y-55214591D01*
X141190997Y-55712581D01*
X141074152Y-56300000D01*
X137127000Y-56300000D01*
X137127000Y-50710000D01*
X144705908Y-50710000D01*
X148815550Y-54819642D01*
M02*
