M48
;DRILL file {KiCad 4.0.7} date 12/17/17 18:45:50
;FORMAT={3:3/ absolute / metric / suppress leading zeros}
FMAT,2
METRIC,TZ
T1C0.400
T2C0.800
T3C0.813
T4C1.000
T5C1.016
T6C6.100
T7C3.200
%
G90
G05
M71
T1
X71200Y-66200
X73800Y-63675
X78850Y-52750
X81400Y-60950
X89000Y-51000
X91575Y-59475
X94150Y-51800
X94175Y-70100
X106400Y-52750
X106400Y-60950
X108950Y-51800
X108950Y-59500
X111500Y-51000
X123950Y-63675
X126500Y-66200
X143200Y-63700
X146000Y-58400
X146000Y-61600
T3
X55990Y-54880
X55990Y-70120
X58530Y-54880
X58530Y-70120
X61070Y-54880
X61070Y-70120
X63610Y-54880
X63610Y-70120
X66150Y-54880
X66150Y-70120
X68690Y-54880
X68690Y-70120
X71230Y-54880
X71230Y-70120
X73770Y-54880
X73770Y-70120
X76310Y-54880
X76310Y-70120
X78850Y-54880
X78850Y-70120
X81390Y-54880
X81390Y-70120
X83930Y-54880
X83930Y-70120
X86470Y-54880
X86470Y-70120
X89010Y-54880
X89010Y-70120
X91550Y-54880
X91550Y-70120
T4
X85260Y-87400
X87800Y-87400
X121420Y-52800
X123960Y-52800
X126500Y-52800
X129040Y-52800
X131580Y-52800
X134120Y-52800
T5
X103880Y-54960
X103880Y-57500
X106420Y-54960
X106420Y-57500
X108960Y-54960
X108960Y-57500
X111500Y-54960
X111500Y-57500
T6
X80000Y-80000
X95000Y-80000
T7
X64000Y-80000
X66000Y-61000
X140000Y-76000
T2
X142650Y-56300G85X143750Y-56300
G05
X142650Y-63700G85X143750Y-63700
G05
X147400Y-56300G85X148500Y-56300
G05
X147400Y-63700G85X148500Y-63700
G05
T0
M30
