G04 #@! TF.FileFunction,Copper,L1,Top,Signal*
%FSLAX46Y46*%
G04 Gerber Fmt 4.6, Leading zero omitted, Abs format (unit mm)*
G04 Created by KiCad (PCBNEW 4.0.7) date 12/02/17 18:35:54*
%MOMM*%
%LPD*%
G01*
G04 APERTURE LIST*
%ADD10C,0.100000*%
%ADD11O,1.727200X1.727200*%
%ADD12R,1.727200X1.727200*%
%ADD13R,1.700000X1.700000*%
%ADD14O,1.700000X1.700000*%
%ADD15O,2.900000X1.800000*%
%ADD16R,1.574800X2.286000*%
%ADD17O,1.574800X2.286000*%
%ADD18C,10.160000*%
%ADD19C,0.600000*%
%ADD20C,0.500000*%
%ADD21C,0.254000*%
G04 APERTURE END LIST*
D10*
D11*
X111500000Y-54960000D03*
X111500000Y-57500000D03*
X108960000Y-54960000D03*
X108960000Y-57500000D03*
X106420000Y-54960000D03*
X106420000Y-57500000D03*
D12*
X103880000Y-54960000D03*
D11*
X103880000Y-57500000D03*
D13*
X134120000Y-52800000D03*
D14*
X131580000Y-52800000D03*
X129040000Y-52800000D03*
X126500000Y-52800000D03*
X123960000Y-52800000D03*
X121420000Y-52800000D03*
D15*
X143200000Y-56300000D03*
X143200000Y-63700000D03*
X147950000Y-63700000D03*
X147950000Y-56300000D03*
D16*
X91550000Y-70120000D03*
D17*
X89010000Y-70120000D03*
X86470000Y-70120000D03*
X83930000Y-70120000D03*
X81390000Y-70120000D03*
X78850000Y-70120000D03*
X76310000Y-70120000D03*
X73770000Y-70120000D03*
X71230000Y-70120000D03*
X68690000Y-70120000D03*
X66150000Y-70120000D03*
X63610000Y-70120000D03*
X61070000Y-70120000D03*
X58530000Y-70120000D03*
X55990000Y-70120000D03*
X55990000Y-54880000D03*
X58530000Y-54880000D03*
X61070000Y-54880000D03*
X63610000Y-54880000D03*
X66150000Y-54880000D03*
X68690000Y-54880000D03*
X71230000Y-54880000D03*
X73770000Y-54880000D03*
X76310000Y-54880000D03*
X78850000Y-54880000D03*
X81390000Y-54880000D03*
X83930000Y-54880000D03*
X86470000Y-54880000D03*
X89010000Y-54880000D03*
X91550000Y-54880000D03*
D18*
X95000000Y-80000000D03*
X80000000Y-80000000D03*
D13*
X87800000Y-87400000D03*
D14*
X85260000Y-87400000D03*
D19*
X89000000Y-51750000D03*
X111500000Y-51750000D03*
X94175000Y-70100000D03*
X94175000Y-52750000D03*
X108950000Y-52750000D03*
X91575000Y-59475000D03*
X108950000Y-59500000D03*
X78850000Y-52750000D03*
X81400000Y-60950000D03*
X106400000Y-60950000D03*
X71200000Y-66200000D03*
X126500000Y-66200000D03*
X123950000Y-63675000D03*
X73800000Y-63675000D03*
X146000000Y-58400000D03*
D20*
X111500000Y-51750000D02*
X89000000Y-51750000D01*
X89010000Y-54524400D02*
X89010000Y-54880000D01*
X94175000Y-70100000D02*
X91570000Y-70100000D01*
X91570000Y-70100000D02*
X91550000Y-70120000D01*
X108950000Y-52750000D02*
X94175000Y-52750000D01*
X108950000Y-59500000D02*
X91600000Y-59500000D01*
X91600000Y-59500000D02*
X91575000Y-59475000D01*
X106400000Y-60950000D02*
X81400000Y-60950000D01*
X126500000Y-66200000D02*
X71200000Y-66200000D01*
X123950000Y-63675000D02*
X73800000Y-63675000D01*
D21*
G36*
X148814641Y-54818733D02*
X148627000Y-54765000D01*
X148077000Y-54765000D01*
X148077000Y-56173000D01*
X148097000Y-56173000D01*
X148097000Y-56427000D01*
X148077000Y-56427000D01*
X148077000Y-57835000D01*
X148627000Y-57835000D01*
X149204752Y-57669554D01*
X149290000Y-57601794D01*
X149290000Y-62398206D01*
X149204752Y-62330446D01*
X148627000Y-62165000D01*
X148077000Y-62165000D01*
X148077000Y-63573000D01*
X148097000Y-63573000D01*
X148097000Y-63827000D01*
X148077000Y-63827000D01*
X148077000Y-65235000D01*
X148627000Y-65235000D01*
X149204752Y-65069554D01*
X149290000Y-65001794D01*
X149290000Y-84705908D01*
X144705908Y-89290000D01*
X55294092Y-89290000D01*
X53374999Y-87370907D01*
X83775000Y-87370907D01*
X83775000Y-87429093D01*
X83888039Y-87997378D01*
X84209946Y-88479147D01*
X84691715Y-88801054D01*
X85260000Y-88914093D01*
X85828285Y-88801054D01*
X86310054Y-88479147D01*
X86337850Y-88437548D01*
X86346838Y-88485317D01*
X86485910Y-88701441D01*
X86698110Y-88846431D01*
X86950000Y-88897440D01*
X88650000Y-88897440D01*
X88885317Y-88853162D01*
X89101441Y-88714090D01*
X89246431Y-88501890D01*
X89297440Y-88250000D01*
X89297440Y-86550000D01*
X89253162Y-86314683D01*
X89114090Y-86098559D01*
X88901890Y-85953569D01*
X88650000Y-85902560D01*
X86950000Y-85902560D01*
X86714683Y-85946838D01*
X86498559Y-86085910D01*
X86353569Y-86298110D01*
X86339914Y-86365541D01*
X86310054Y-86320853D01*
X85828285Y-85998946D01*
X85260000Y-85885907D01*
X84691715Y-85998946D01*
X84209946Y-86320853D01*
X83888039Y-86802622D01*
X83775000Y-87370907D01*
X53374999Y-87370907D01*
X50710000Y-84705908D01*
X50710000Y-80442619D01*
X61764613Y-80442619D01*
X62104155Y-81264372D01*
X62732321Y-81893636D01*
X63553481Y-82234611D01*
X64442619Y-82235387D01*
X65264372Y-81895845D01*
X65893636Y-81267679D01*
X65950059Y-81131796D01*
X74284011Y-81131796D01*
X75152234Y-83233058D01*
X76758486Y-84842116D01*
X78858229Y-85714005D01*
X81131796Y-85715989D01*
X83233058Y-84847766D01*
X84842116Y-83241514D01*
X85714005Y-81141771D01*
X85714013Y-81131796D01*
X89284011Y-81131796D01*
X90152234Y-83233058D01*
X91758486Y-84842116D01*
X93858229Y-85714005D01*
X96131796Y-85715989D01*
X98233058Y-84847766D01*
X99842116Y-83241514D01*
X100714005Y-81141771D01*
X100715989Y-78868204D01*
X99847766Y-76766942D01*
X99524009Y-76442619D01*
X137764613Y-76442619D01*
X138104155Y-77264372D01*
X138732321Y-77893636D01*
X139553481Y-78234611D01*
X140442619Y-78235387D01*
X141264372Y-77895845D01*
X141893636Y-77267679D01*
X142234611Y-76446519D01*
X142235387Y-75557381D01*
X141895845Y-74735628D01*
X141267679Y-74106364D01*
X140446519Y-73765389D01*
X139557381Y-73764613D01*
X138735628Y-74104155D01*
X138106364Y-74732321D01*
X137765389Y-75553481D01*
X137764613Y-76442619D01*
X99524009Y-76442619D01*
X98241514Y-75157884D01*
X96141771Y-74285995D01*
X93868204Y-74284011D01*
X91766942Y-75152234D01*
X90157884Y-76758486D01*
X89285995Y-78858229D01*
X89284011Y-81131796D01*
X85714013Y-81131796D01*
X85715989Y-78868204D01*
X84847766Y-76766942D01*
X83241514Y-75157884D01*
X81141771Y-74285995D01*
X78868204Y-74284011D01*
X76766942Y-75152234D01*
X75157884Y-76758486D01*
X74285995Y-78858229D01*
X74284011Y-81131796D01*
X65950059Y-81131796D01*
X66234611Y-80446519D01*
X66235387Y-79557381D01*
X65895845Y-78735628D01*
X65267679Y-78106364D01*
X64446519Y-77765389D01*
X63557381Y-77764613D01*
X62735628Y-78104155D01*
X62106364Y-78732321D01*
X61765389Y-79553481D01*
X61764613Y-80442619D01*
X50710000Y-80442619D01*
X50710000Y-69729567D01*
X54567600Y-69729567D01*
X54567600Y-70510433D01*
X54675874Y-71054762D01*
X54984211Y-71516222D01*
X55445671Y-71824559D01*
X55990000Y-71932833D01*
X56534329Y-71824559D01*
X56995789Y-71516222D01*
X57259754Y-71121170D01*
X57264475Y-71137262D01*
X57614014Y-71571191D01*
X58103004Y-71838327D01*
X58182940Y-71855010D01*
X58403000Y-71732852D01*
X58403000Y-70247000D01*
X58383000Y-70247000D01*
X58383000Y-69993000D01*
X58403000Y-69993000D01*
X58403000Y-68507148D01*
X58657000Y-68507148D01*
X58657000Y-69993000D01*
X58677000Y-69993000D01*
X58677000Y-70247000D01*
X58657000Y-70247000D01*
X58657000Y-71732852D01*
X58877060Y-71855010D01*
X58956996Y-71838327D01*
X59445986Y-71571191D01*
X59795525Y-71137262D01*
X59800246Y-71121170D01*
X60064211Y-71516222D01*
X60525671Y-71824559D01*
X61070000Y-71932833D01*
X61614329Y-71824559D01*
X62075789Y-71516222D01*
X62340000Y-71120801D01*
X62604211Y-71516222D01*
X63065671Y-71824559D01*
X63610000Y-71932833D01*
X64154329Y-71824559D01*
X64615789Y-71516222D01*
X64880000Y-71120801D01*
X65144211Y-71516222D01*
X65605671Y-71824559D01*
X66150000Y-71932833D01*
X66694329Y-71824559D01*
X67155789Y-71516222D01*
X67420000Y-71120801D01*
X67684211Y-71516222D01*
X68145671Y-71824559D01*
X68690000Y-71932833D01*
X69234329Y-71824559D01*
X69695789Y-71516222D01*
X69960000Y-71120801D01*
X70224211Y-71516222D01*
X70685671Y-71824559D01*
X71230000Y-71932833D01*
X71774329Y-71824559D01*
X72235789Y-71516222D01*
X72500000Y-71120801D01*
X72764211Y-71516222D01*
X73225671Y-71824559D01*
X73770000Y-71932833D01*
X74314329Y-71824559D01*
X74775789Y-71516222D01*
X75040000Y-71120801D01*
X75304211Y-71516222D01*
X75765671Y-71824559D01*
X76310000Y-71932833D01*
X76854329Y-71824559D01*
X77315789Y-71516222D01*
X77580000Y-71120801D01*
X77844211Y-71516222D01*
X78305671Y-71824559D01*
X78850000Y-71932833D01*
X79394329Y-71824559D01*
X79855789Y-71516222D01*
X80120000Y-71120801D01*
X80384211Y-71516222D01*
X80845671Y-71824559D01*
X81390000Y-71932833D01*
X81934329Y-71824559D01*
X82395789Y-71516222D01*
X82660000Y-71120801D01*
X82924211Y-71516222D01*
X83385671Y-71824559D01*
X83930000Y-71932833D01*
X84474329Y-71824559D01*
X84935789Y-71516222D01*
X85200000Y-71120801D01*
X85464211Y-71516222D01*
X85925671Y-71824559D01*
X86470000Y-71932833D01*
X87014329Y-71824559D01*
X87475789Y-71516222D01*
X87740000Y-71120801D01*
X88004211Y-71516222D01*
X88465671Y-71824559D01*
X89010000Y-71932833D01*
X89554329Y-71824559D01*
X90015789Y-71516222D01*
X90130503Y-71344540D01*
X90159438Y-71498317D01*
X90298510Y-71714441D01*
X90510710Y-71859431D01*
X90762600Y-71910440D01*
X92337400Y-71910440D01*
X92572717Y-71866162D01*
X92788841Y-71727090D01*
X92933831Y-71514890D01*
X92984840Y-71263000D01*
X92984840Y-70985000D01*
X93868178Y-70985000D01*
X93988201Y-71034838D01*
X94360167Y-71035162D01*
X94703943Y-70893117D01*
X94967192Y-70630327D01*
X95109838Y-70286799D01*
X95110162Y-69914833D01*
X94968117Y-69571057D01*
X94705327Y-69307808D01*
X94361799Y-69165162D01*
X93989833Y-69164838D01*
X93868431Y-69215000D01*
X92984840Y-69215000D01*
X92984840Y-68977000D01*
X92940562Y-68741683D01*
X92801490Y-68525559D01*
X92589290Y-68380569D01*
X92337400Y-68329560D01*
X90762600Y-68329560D01*
X90527283Y-68373838D01*
X90311159Y-68512910D01*
X90166169Y-68725110D01*
X90131400Y-68896803D01*
X90015789Y-68723778D01*
X89554329Y-68415441D01*
X89010000Y-68307167D01*
X88465671Y-68415441D01*
X88004211Y-68723778D01*
X87740000Y-69119199D01*
X87475789Y-68723778D01*
X87014329Y-68415441D01*
X86470000Y-68307167D01*
X85925671Y-68415441D01*
X85464211Y-68723778D01*
X85200000Y-69119199D01*
X84935789Y-68723778D01*
X84474329Y-68415441D01*
X83930000Y-68307167D01*
X83385671Y-68415441D01*
X82924211Y-68723778D01*
X82660000Y-69119199D01*
X82395789Y-68723778D01*
X81934329Y-68415441D01*
X81390000Y-68307167D01*
X80845671Y-68415441D01*
X80384211Y-68723778D01*
X80120000Y-69119199D01*
X79855789Y-68723778D01*
X79394329Y-68415441D01*
X78850000Y-68307167D01*
X78305671Y-68415441D01*
X77844211Y-68723778D01*
X77580000Y-69119199D01*
X77315789Y-68723778D01*
X76854329Y-68415441D01*
X76310000Y-68307167D01*
X75765671Y-68415441D01*
X75304211Y-68723778D01*
X75040000Y-69119199D01*
X74775789Y-68723778D01*
X74314329Y-68415441D01*
X73770000Y-68307167D01*
X73225671Y-68415441D01*
X72764211Y-68723778D01*
X72500000Y-69119199D01*
X72235789Y-68723778D01*
X71774329Y-68415441D01*
X71230000Y-68307167D01*
X70685671Y-68415441D01*
X70224211Y-68723778D01*
X69960000Y-69119199D01*
X69695789Y-68723778D01*
X69234329Y-68415441D01*
X68690000Y-68307167D01*
X68145671Y-68415441D01*
X67684211Y-68723778D01*
X67420000Y-69119199D01*
X67155789Y-68723778D01*
X66694329Y-68415441D01*
X66150000Y-68307167D01*
X65605671Y-68415441D01*
X65144211Y-68723778D01*
X64880000Y-69119199D01*
X64615789Y-68723778D01*
X64154329Y-68415441D01*
X63610000Y-68307167D01*
X63065671Y-68415441D01*
X62604211Y-68723778D01*
X62340000Y-69119199D01*
X62075789Y-68723778D01*
X61614329Y-68415441D01*
X61070000Y-68307167D01*
X60525671Y-68415441D01*
X60064211Y-68723778D01*
X59800246Y-69118830D01*
X59795525Y-69102738D01*
X59445986Y-68668809D01*
X58956996Y-68401673D01*
X58877060Y-68384990D01*
X58657000Y-68507148D01*
X58403000Y-68507148D01*
X58182940Y-68384990D01*
X58103004Y-68401673D01*
X57614014Y-68668809D01*
X57264475Y-69102738D01*
X57259754Y-69118830D01*
X56995789Y-68723778D01*
X56534329Y-68415441D01*
X55990000Y-68307167D01*
X55445671Y-68415441D01*
X54984211Y-68723778D01*
X54675874Y-69185238D01*
X54567600Y-69729567D01*
X50710000Y-69729567D01*
X50710000Y-66385167D01*
X70264838Y-66385167D01*
X70406883Y-66728943D01*
X70669673Y-66992192D01*
X71013201Y-67134838D01*
X71385167Y-67135162D01*
X71506569Y-67085000D01*
X126193178Y-67085000D01*
X126313201Y-67134838D01*
X126685167Y-67135162D01*
X127028943Y-66993117D01*
X127292192Y-66730327D01*
X127434838Y-66386799D01*
X127435162Y-66014833D01*
X127293117Y-65671057D01*
X127030327Y-65407808D01*
X126686799Y-65265162D01*
X126314833Y-65264838D01*
X126193431Y-65315000D01*
X71506822Y-65315000D01*
X71386799Y-65265162D01*
X71014833Y-65264838D01*
X70671057Y-65406883D01*
X70407808Y-65669673D01*
X70265162Y-66013201D01*
X70264838Y-66385167D01*
X50710000Y-66385167D01*
X50710000Y-63860167D01*
X72864838Y-63860167D01*
X73006883Y-64203943D01*
X73269673Y-64467192D01*
X73613201Y-64609838D01*
X73985167Y-64610162D01*
X74106569Y-64560000D01*
X123643178Y-64560000D01*
X123763201Y-64609838D01*
X124135167Y-64610162D01*
X124478943Y-64468117D01*
X124742192Y-64205327D01*
X124800569Y-64064740D01*
X141158964Y-64064740D01*
X141183244Y-64170086D01*
X141474788Y-64695606D01*
X141945248Y-65069554D01*
X142523000Y-65235000D01*
X143073000Y-65235000D01*
X143073000Y-63827000D01*
X143327000Y-63827000D01*
X143327000Y-65235000D01*
X143877000Y-65235000D01*
X144454752Y-65069554D01*
X144925212Y-64695606D01*
X145216756Y-64170086D01*
X145241036Y-64064740D01*
X145908964Y-64064740D01*
X145933244Y-64170086D01*
X146224788Y-64695606D01*
X146695248Y-65069554D01*
X147273000Y-65235000D01*
X147823000Y-65235000D01*
X147823000Y-63827000D01*
X146029622Y-63827000D01*
X145908964Y-64064740D01*
X145241036Y-64064740D01*
X145120378Y-63827000D01*
X143327000Y-63827000D01*
X143073000Y-63827000D01*
X141279622Y-63827000D01*
X141158964Y-64064740D01*
X124800569Y-64064740D01*
X124884838Y-63861799D01*
X124885162Y-63489833D01*
X124821294Y-63335260D01*
X141158964Y-63335260D01*
X141279622Y-63573000D01*
X143073000Y-63573000D01*
X143073000Y-62165000D01*
X143327000Y-62165000D01*
X143327000Y-63573000D01*
X145120378Y-63573000D01*
X145241036Y-63335260D01*
X145908964Y-63335260D01*
X146029622Y-63573000D01*
X147823000Y-63573000D01*
X147823000Y-62165000D01*
X147273000Y-62165000D01*
X146695248Y-62330446D01*
X146224788Y-62704394D01*
X145933244Y-63229914D01*
X145908964Y-63335260D01*
X145241036Y-63335260D01*
X145216756Y-63229914D01*
X144925212Y-62704394D01*
X144454752Y-62330446D01*
X143877000Y-62165000D01*
X143327000Y-62165000D01*
X143073000Y-62165000D01*
X142523000Y-62165000D01*
X141945248Y-62330446D01*
X141474788Y-62704394D01*
X141183244Y-63229914D01*
X141158964Y-63335260D01*
X124821294Y-63335260D01*
X124743117Y-63146057D01*
X124480327Y-62882808D01*
X124136799Y-62740162D01*
X123764833Y-62739838D01*
X123643431Y-62790000D01*
X74106822Y-62790000D01*
X73986799Y-62740162D01*
X73614833Y-62739838D01*
X73271057Y-62881883D01*
X73007808Y-63144673D01*
X72865162Y-63488201D01*
X72864838Y-63860167D01*
X50710000Y-63860167D01*
X50710000Y-61442619D01*
X63764613Y-61442619D01*
X64104155Y-62264372D01*
X64732321Y-62893636D01*
X65553481Y-63234611D01*
X66442619Y-63235387D01*
X67264372Y-62895845D01*
X67893636Y-62267679D01*
X68234611Y-61446519D01*
X68234882Y-61135167D01*
X80464838Y-61135167D01*
X80606883Y-61478943D01*
X80869673Y-61742192D01*
X81213201Y-61884838D01*
X81585167Y-61885162D01*
X81706569Y-61835000D01*
X106093178Y-61835000D01*
X106213201Y-61884838D01*
X106585167Y-61885162D01*
X106928943Y-61743117D01*
X107192192Y-61480327D01*
X107334838Y-61136799D01*
X107335162Y-60764833D01*
X107193117Y-60421057D01*
X107157123Y-60385000D01*
X108643178Y-60385000D01*
X108763201Y-60434838D01*
X109135167Y-60435162D01*
X109478943Y-60293117D01*
X109742192Y-60030327D01*
X109884838Y-59686799D01*
X109885162Y-59314833D01*
X109743117Y-58971057D01*
X109619170Y-58846893D01*
X110049029Y-58559670D01*
X110230000Y-58288828D01*
X110410971Y-58559670D01*
X110897152Y-58884526D01*
X111470641Y-58998600D01*
X111529359Y-58998600D01*
X112102848Y-58884526D01*
X112550870Y-58585167D01*
X145064838Y-58585167D01*
X145206883Y-58928943D01*
X145469673Y-59192192D01*
X145813201Y-59334838D01*
X146185167Y-59335162D01*
X146528943Y-59193117D01*
X146792192Y-58930327D01*
X146934838Y-58586799D01*
X146935162Y-58214833D01*
X146793117Y-57871057D01*
X146530327Y-57607808D01*
X146186799Y-57465162D01*
X145814833Y-57464838D01*
X145471057Y-57606883D01*
X145207808Y-57869673D01*
X145065162Y-58213201D01*
X145064838Y-58585167D01*
X112550870Y-58585167D01*
X112589029Y-58559670D01*
X112913885Y-58073489D01*
X113027959Y-57500000D01*
X112913885Y-56926511D01*
X112738976Y-56664740D01*
X141158964Y-56664740D01*
X141183244Y-56770086D01*
X141474788Y-57295606D01*
X141945248Y-57669554D01*
X142523000Y-57835000D01*
X143073000Y-57835000D01*
X143073000Y-56427000D01*
X143327000Y-56427000D01*
X143327000Y-57835000D01*
X143877000Y-57835000D01*
X144454752Y-57669554D01*
X144925212Y-57295606D01*
X145216756Y-56770086D01*
X145241036Y-56664740D01*
X145908964Y-56664740D01*
X145933244Y-56770086D01*
X146224788Y-57295606D01*
X146695248Y-57669554D01*
X147273000Y-57835000D01*
X147823000Y-57835000D01*
X147823000Y-56427000D01*
X146029622Y-56427000D01*
X145908964Y-56664740D01*
X145241036Y-56664740D01*
X145120378Y-56427000D01*
X143327000Y-56427000D01*
X143073000Y-56427000D01*
X141279622Y-56427000D01*
X141158964Y-56664740D01*
X112738976Y-56664740D01*
X112589029Y-56440330D01*
X112274248Y-56230000D01*
X112589029Y-56019670D01*
X112645430Y-55935260D01*
X141158964Y-55935260D01*
X141279622Y-56173000D01*
X143073000Y-56173000D01*
X143073000Y-54765000D01*
X143327000Y-54765000D01*
X143327000Y-56173000D01*
X145120378Y-56173000D01*
X145241036Y-55935260D01*
X145908964Y-55935260D01*
X146029622Y-56173000D01*
X147823000Y-56173000D01*
X147823000Y-54765000D01*
X147273000Y-54765000D01*
X146695248Y-54930446D01*
X146224788Y-55304394D01*
X145933244Y-55829914D01*
X145908964Y-55935260D01*
X145241036Y-55935260D01*
X145216756Y-55829914D01*
X144925212Y-55304394D01*
X144454752Y-54930446D01*
X143877000Y-54765000D01*
X143327000Y-54765000D01*
X143073000Y-54765000D01*
X142523000Y-54765000D01*
X141945248Y-54930446D01*
X141474788Y-55304394D01*
X141183244Y-55829914D01*
X141158964Y-55935260D01*
X112645430Y-55935260D01*
X112913885Y-55533489D01*
X113027959Y-54960000D01*
X112913885Y-54386511D01*
X112589029Y-53900330D01*
X112102848Y-53575474D01*
X111529359Y-53461400D01*
X111470641Y-53461400D01*
X110897152Y-53575474D01*
X110410971Y-53900330D01*
X110230000Y-54171172D01*
X110049029Y-53900330D01*
X109562848Y-53575474D01*
X109453347Y-53553693D01*
X109478943Y-53543117D01*
X109742192Y-53280327D01*
X109884838Y-52936799D01*
X109884982Y-52770907D01*
X119935000Y-52770907D01*
X119935000Y-52829093D01*
X120048039Y-53397378D01*
X120369946Y-53879147D01*
X120851715Y-54201054D01*
X121420000Y-54314093D01*
X121988285Y-54201054D01*
X122470054Y-53879147D01*
X122690000Y-53549974D01*
X122909946Y-53879147D01*
X123391715Y-54201054D01*
X123960000Y-54314093D01*
X124528285Y-54201054D01*
X125010054Y-53879147D01*
X125230000Y-53549974D01*
X125449946Y-53879147D01*
X125931715Y-54201054D01*
X126500000Y-54314093D01*
X127068285Y-54201054D01*
X127550054Y-53879147D01*
X127777702Y-53538447D01*
X127844817Y-53681358D01*
X128273076Y-54071645D01*
X128683110Y-54241476D01*
X128913000Y-54120155D01*
X128913000Y-52927000D01*
X128893000Y-52927000D01*
X128893000Y-52673000D01*
X128913000Y-52673000D01*
X128913000Y-51479845D01*
X129167000Y-51479845D01*
X129167000Y-52673000D01*
X129187000Y-52673000D01*
X129187000Y-52927000D01*
X129167000Y-52927000D01*
X129167000Y-54120155D01*
X129396890Y-54241476D01*
X129806924Y-54071645D01*
X130235183Y-53681358D01*
X130302298Y-53538447D01*
X130529946Y-53879147D01*
X131011715Y-54201054D01*
X131580000Y-54314093D01*
X132148285Y-54201054D01*
X132630054Y-53879147D01*
X132657850Y-53837548D01*
X132666838Y-53885317D01*
X132805910Y-54101441D01*
X133018110Y-54246431D01*
X133270000Y-54297440D01*
X134970000Y-54297440D01*
X135205317Y-54253162D01*
X135421441Y-54114090D01*
X135566431Y-53901890D01*
X135617440Y-53650000D01*
X135617440Y-51950000D01*
X135573162Y-51714683D01*
X135434090Y-51498559D01*
X135221890Y-51353569D01*
X134970000Y-51302560D01*
X133270000Y-51302560D01*
X133034683Y-51346838D01*
X132818559Y-51485910D01*
X132673569Y-51698110D01*
X132659914Y-51765541D01*
X132630054Y-51720853D01*
X132148285Y-51398946D01*
X131580000Y-51285907D01*
X131011715Y-51398946D01*
X130529946Y-51720853D01*
X130302298Y-52061553D01*
X130235183Y-51918642D01*
X129806924Y-51528355D01*
X129396890Y-51358524D01*
X129167000Y-51479845D01*
X128913000Y-51479845D01*
X128683110Y-51358524D01*
X128273076Y-51528355D01*
X127844817Y-51918642D01*
X127777702Y-52061553D01*
X127550054Y-51720853D01*
X127068285Y-51398946D01*
X126500000Y-51285907D01*
X125931715Y-51398946D01*
X125449946Y-51720853D01*
X125230000Y-52050026D01*
X125010054Y-51720853D01*
X124528285Y-51398946D01*
X123960000Y-51285907D01*
X123391715Y-51398946D01*
X122909946Y-51720853D01*
X122690000Y-52050026D01*
X122470054Y-51720853D01*
X121988285Y-51398946D01*
X121420000Y-51285907D01*
X120851715Y-51398946D01*
X120369946Y-51720853D01*
X120048039Y-52202622D01*
X119935000Y-52770907D01*
X109884982Y-52770907D01*
X109885101Y-52635000D01*
X111193178Y-52635000D01*
X111313201Y-52684838D01*
X111685167Y-52685162D01*
X112028943Y-52543117D01*
X112292192Y-52280327D01*
X112434838Y-51936799D01*
X112435162Y-51564833D01*
X112293117Y-51221057D01*
X112030327Y-50957808D01*
X111686799Y-50815162D01*
X111314833Y-50814838D01*
X111193431Y-50865000D01*
X89306822Y-50865000D01*
X89186799Y-50815162D01*
X88814833Y-50814838D01*
X88471057Y-50956883D01*
X88207808Y-51219673D01*
X88065162Y-51563201D01*
X88064838Y-51935167D01*
X88206883Y-52278943D01*
X88469673Y-52542192D01*
X88813201Y-52684838D01*
X89185167Y-52685162D01*
X89306569Y-52635000D01*
X93240099Y-52635000D01*
X93239838Y-52935167D01*
X93381883Y-53278943D01*
X93644673Y-53542192D01*
X93988201Y-53684838D01*
X94360167Y-53685162D01*
X94481569Y-53635000D01*
X102579775Y-53635000D01*
X102478073Y-53736701D01*
X102381400Y-53970090D01*
X102381400Y-54674250D01*
X102540150Y-54833000D01*
X103753000Y-54833000D01*
X103753000Y-54813000D01*
X104007000Y-54813000D01*
X104007000Y-54833000D01*
X104027000Y-54833000D01*
X104027000Y-55087000D01*
X104007000Y-55087000D01*
X104007000Y-55107000D01*
X103753000Y-55107000D01*
X103753000Y-55087000D01*
X102540150Y-55087000D01*
X102381400Y-55245750D01*
X102381400Y-55949910D01*
X102478073Y-56183299D01*
X102656702Y-56361927D01*
X102812023Y-56426263D01*
X102790971Y-56440330D01*
X102466115Y-56926511D01*
X102352041Y-57500000D01*
X102466115Y-58073489D01*
X102790971Y-58559670D01*
X102873778Y-58615000D01*
X91942028Y-58615000D01*
X91761799Y-58540162D01*
X91389833Y-58539838D01*
X91046057Y-58681883D01*
X90782808Y-58944673D01*
X90640162Y-59288201D01*
X90639838Y-59660167D01*
X90781883Y-60003943D01*
X90842834Y-60065000D01*
X81706822Y-60065000D01*
X81586799Y-60015162D01*
X81214833Y-60014838D01*
X80871057Y-60156883D01*
X80607808Y-60419673D01*
X80465162Y-60763201D01*
X80464838Y-61135167D01*
X68234882Y-61135167D01*
X68235387Y-60557381D01*
X67895845Y-59735628D01*
X67267679Y-59106364D01*
X66446519Y-58765389D01*
X65557381Y-58764613D01*
X64735628Y-59104155D01*
X64106364Y-59732321D01*
X63765389Y-60553481D01*
X63764613Y-61442619D01*
X50710000Y-61442619D01*
X50710000Y-55294092D01*
X51514525Y-54489567D01*
X54567600Y-54489567D01*
X54567600Y-55270433D01*
X54675874Y-55814762D01*
X54984211Y-56276222D01*
X55445671Y-56584559D01*
X55990000Y-56692833D01*
X56534329Y-56584559D01*
X56995789Y-56276222D01*
X57260000Y-55880801D01*
X57524211Y-56276222D01*
X57985671Y-56584559D01*
X58530000Y-56692833D01*
X59074329Y-56584559D01*
X59535789Y-56276222D01*
X59800000Y-55880801D01*
X60064211Y-56276222D01*
X60525671Y-56584559D01*
X61070000Y-56692833D01*
X61614329Y-56584559D01*
X62075789Y-56276222D01*
X62339754Y-55881170D01*
X62344475Y-55897262D01*
X62694014Y-56331191D01*
X63183004Y-56598327D01*
X63262940Y-56615010D01*
X63483000Y-56492852D01*
X63483000Y-55007000D01*
X63463000Y-55007000D01*
X63463000Y-54753000D01*
X63483000Y-54753000D01*
X63483000Y-53267148D01*
X63737000Y-53267148D01*
X63737000Y-54753000D01*
X63757000Y-54753000D01*
X63757000Y-55007000D01*
X63737000Y-55007000D01*
X63737000Y-56492852D01*
X63957060Y-56615010D01*
X64036996Y-56598327D01*
X64525986Y-56331191D01*
X64875525Y-55897262D01*
X64880246Y-55881170D01*
X65144211Y-56276222D01*
X65605671Y-56584559D01*
X66150000Y-56692833D01*
X66694329Y-56584559D01*
X67155789Y-56276222D01*
X67420000Y-55880801D01*
X67684211Y-56276222D01*
X68145671Y-56584559D01*
X68690000Y-56692833D01*
X69234329Y-56584559D01*
X69695789Y-56276222D01*
X69960000Y-55880801D01*
X70224211Y-56276222D01*
X70685671Y-56584559D01*
X71230000Y-56692833D01*
X71774329Y-56584559D01*
X72235789Y-56276222D01*
X72500000Y-55880801D01*
X72764211Y-56276222D01*
X73225671Y-56584559D01*
X73770000Y-56692833D01*
X74314329Y-56584559D01*
X74775789Y-56276222D01*
X75040000Y-55880801D01*
X75304211Y-56276222D01*
X75765671Y-56584559D01*
X76310000Y-56692833D01*
X76854329Y-56584559D01*
X77315789Y-56276222D01*
X77580000Y-55880801D01*
X77844211Y-56276222D01*
X78305671Y-56584559D01*
X78850000Y-56692833D01*
X79394329Y-56584559D01*
X79855789Y-56276222D01*
X80120000Y-55880801D01*
X80384211Y-56276222D01*
X80845671Y-56584559D01*
X81390000Y-56692833D01*
X81934329Y-56584559D01*
X82395789Y-56276222D01*
X82660000Y-55880801D01*
X82924211Y-56276222D01*
X83385671Y-56584559D01*
X83930000Y-56692833D01*
X84474329Y-56584559D01*
X84935789Y-56276222D01*
X85200000Y-55880801D01*
X85464211Y-56276222D01*
X85925671Y-56584559D01*
X86470000Y-56692833D01*
X87014329Y-56584559D01*
X87475789Y-56276222D01*
X87740000Y-55880801D01*
X88004211Y-56276222D01*
X88465671Y-56584559D01*
X89010000Y-56692833D01*
X89554329Y-56584559D01*
X90015789Y-56276222D01*
X90280000Y-55880801D01*
X90544211Y-56276222D01*
X91005671Y-56584559D01*
X91550000Y-56692833D01*
X92094329Y-56584559D01*
X92555789Y-56276222D01*
X92864126Y-55814762D01*
X92972400Y-55270433D01*
X92972400Y-54489567D01*
X92864126Y-53945238D01*
X92555789Y-53483778D01*
X92094329Y-53175441D01*
X91550000Y-53067167D01*
X91005671Y-53175441D01*
X90544211Y-53483778D01*
X90280000Y-53879199D01*
X90015789Y-53483778D01*
X89554329Y-53175441D01*
X89010000Y-53067167D01*
X88465671Y-53175441D01*
X88004211Y-53483778D01*
X87740000Y-53879199D01*
X87475789Y-53483778D01*
X87014329Y-53175441D01*
X86470000Y-53067167D01*
X85925671Y-53175441D01*
X85464211Y-53483778D01*
X85200000Y-53879199D01*
X84935789Y-53483778D01*
X84474329Y-53175441D01*
X83930000Y-53067167D01*
X83385671Y-53175441D01*
X82924211Y-53483778D01*
X82660000Y-53879199D01*
X82395789Y-53483778D01*
X81934329Y-53175441D01*
X81390000Y-53067167D01*
X80845671Y-53175441D01*
X80384211Y-53483778D01*
X80120000Y-53879199D01*
X79855789Y-53483778D01*
X79605749Y-53316707D01*
X79642192Y-53280327D01*
X79784838Y-52936799D01*
X79785162Y-52564833D01*
X79643117Y-52221057D01*
X79380327Y-51957808D01*
X79036799Y-51815162D01*
X78664833Y-51814838D01*
X78321057Y-51956883D01*
X78057808Y-52219673D01*
X77915162Y-52563201D01*
X77914838Y-52935167D01*
X78056883Y-53278943D01*
X78094449Y-53316575D01*
X77844211Y-53483778D01*
X77580000Y-53879199D01*
X77315789Y-53483778D01*
X76854329Y-53175441D01*
X76310000Y-53067167D01*
X75765671Y-53175441D01*
X75304211Y-53483778D01*
X75040000Y-53879199D01*
X74775789Y-53483778D01*
X74314329Y-53175441D01*
X73770000Y-53067167D01*
X73225671Y-53175441D01*
X72764211Y-53483778D01*
X72500000Y-53879199D01*
X72235789Y-53483778D01*
X71774329Y-53175441D01*
X71230000Y-53067167D01*
X70685671Y-53175441D01*
X70224211Y-53483778D01*
X69960000Y-53879199D01*
X69695789Y-53483778D01*
X69234329Y-53175441D01*
X68690000Y-53067167D01*
X68145671Y-53175441D01*
X67684211Y-53483778D01*
X67420000Y-53879199D01*
X67155789Y-53483778D01*
X66694329Y-53175441D01*
X66150000Y-53067167D01*
X65605671Y-53175441D01*
X65144211Y-53483778D01*
X64880246Y-53878830D01*
X64875525Y-53862738D01*
X64525986Y-53428809D01*
X64036996Y-53161673D01*
X63957060Y-53144990D01*
X63737000Y-53267148D01*
X63483000Y-53267148D01*
X63262940Y-53144990D01*
X63183004Y-53161673D01*
X62694014Y-53428809D01*
X62344475Y-53862738D01*
X62339754Y-53878830D01*
X62075789Y-53483778D01*
X61614329Y-53175441D01*
X61070000Y-53067167D01*
X60525671Y-53175441D01*
X60064211Y-53483778D01*
X59800000Y-53879199D01*
X59535789Y-53483778D01*
X59074329Y-53175441D01*
X58530000Y-53067167D01*
X57985671Y-53175441D01*
X57524211Y-53483778D01*
X57260000Y-53879199D01*
X56995789Y-53483778D01*
X56534329Y-53175441D01*
X55990000Y-53067167D01*
X55445671Y-53175441D01*
X54984211Y-53483778D01*
X54675874Y-53945238D01*
X54567600Y-54489567D01*
X51514525Y-54489567D01*
X55294092Y-50710000D01*
X144705908Y-50710000D01*
X148814641Y-54818733D01*
X148814641Y-54818733D01*
G37*
X148814641Y-54818733D02*
X148627000Y-54765000D01*
X148077000Y-54765000D01*
X148077000Y-56173000D01*
X148097000Y-56173000D01*
X148097000Y-56427000D01*
X148077000Y-56427000D01*
X148077000Y-57835000D01*
X148627000Y-57835000D01*
X149204752Y-57669554D01*
X149290000Y-57601794D01*
X149290000Y-62398206D01*
X149204752Y-62330446D01*
X148627000Y-62165000D01*
X148077000Y-62165000D01*
X148077000Y-63573000D01*
X148097000Y-63573000D01*
X148097000Y-63827000D01*
X148077000Y-63827000D01*
X148077000Y-65235000D01*
X148627000Y-65235000D01*
X149204752Y-65069554D01*
X149290000Y-65001794D01*
X149290000Y-84705908D01*
X144705908Y-89290000D01*
X55294092Y-89290000D01*
X53374999Y-87370907D01*
X83775000Y-87370907D01*
X83775000Y-87429093D01*
X83888039Y-87997378D01*
X84209946Y-88479147D01*
X84691715Y-88801054D01*
X85260000Y-88914093D01*
X85828285Y-88801054D01*
X86310054Y-88479147D01*
X86337850Y-88437548D01*
X86346838Y-88485317D01*
X86485910Y-88701441D01*
X86698110Y-88846431D01*
X86950000Y-88897440D01*
X88650000Y-88897440D01*
X88885317Y-88853162D01*
X89101441Y-88714090D01*
X89246431Y-88501890D01*
X89297440Y-88250000D01*
X89297440Y-86550000D01*
X89253162Y-86314683D01*
X89114090Y-86098559D01*
X88901890Y-85953569D01*
X88650000Y-85902560D01*
X86950000Y-85902560D01*
X86714683Y-85946838D01*
X86498559Y-86085910D01*
X86353569Y-86298110D01*
X86339914Y-86365541D01*
X86310054Y-86320853D01*
X85828285Y-85998946D01*
X85260000Y-85885907D01*
X84691715Y-85998946D01*
X84209946Y-86320853D01*
X83888039Y-86802622D01*
X83775000Y-87370907D01*
X53374999Y-87370907D01*
X50710000Y-84705908D01*
X50710000Y-80442619D01*
X61764613Y-80442619D01*
X62104155Y-81264372D01*
X62732321Y-81893636D01*
X63553481Y-82234611D01*
X64442619Y-82235387D01*
X65264372Y-81895845D01*
X65893636Y-81267679D01*
X65950059Y-81131796D01*
X74284011Y-81131796D01*
X75152234Y-83233058D01*
X76758486Y-84842116D01*
X78858229Y-85714005D01*
X81131796Y-85715989D01*
X83233058Y-84847766D01*
X84842116Y-83241514D01*
X85714005Y-81141771D01*
X85714013Y-81131796D01*
X89284011Y-81131796D01*
X90152234Y-83233058D01*
X91758486Y-84842116D01*
X93858229Y-85714005D01*
X96131796Y-85715989D01*
X98233058Y-84847766D01*
X99842116Y-83241514D01*
X100714005Y-81141771D01*
X100715989Y-78868204D01*
X99847766Y-76766942D01*
X99524009Y-76442619D01*
X137764613Y-76442619D01*
X138104155Y-77264372D01*
X138732321Y-77893636D01*
X139553481Y-78234611D01*
X140442619Y-78235387D01*
X141264372Y-77895845D01*
X141893636Y-77267679D01*
X142234611Y-76446519D01*
X142235387Y-75557381D01*
X141895845Y-74735628D01*
X141267679Y-74106364D01*
X140446519Y-73765389D01*
X139557381Y-73764613D01*
X138735628Y-74104155D01*
X138106364Y-74732321D01*
X137765389Y-75553481D01*
X137764613Y-76442619D01*
X99524009Y-76442619D01*
X98241514Y-75157884D01*
X96141771Y-74285995D01*
X93868204Y-74284011D01*
X91766942Y-75152234D01*
X90157884Y-76758486D01*
X89285995Y-78858229D01*
X89284011Y-81131796D01*
X85714013Y-81131796D01*
X85715989Y-78868204D01*
X84847766Y-76766942D01*
X83241514Y-75157884D01*
X81141771Y-74285995D01*
X78868204Y-74284011D01*
X76766942Y-75152234D01*
X75157884Y-76758486D01*
X74285995Y-78858229D01*
X74284011Y-81131796D01*
X65950059Y-81131796D01*
X66234611Y-80446519D01*
X66235387Y-79557381D01*
X65895845Y-78735628D01*
X65267679Y-78106364D01*
X64446519Y-77765389D01*
X63557381Y-77764613D01*
X62735628Y-78104155D01*
X62106364Y-78732321D01*
X61765389Y-79553481D01*
X61764613Y-80442619D01*
X50710000Y-80442619D01*
X50710000Y-69729567D01*
X54567600Y-69729567D01*
X54567600Y-70510433D01*
X54675874Y-71054762D01*
X54984211Y-71516222D01*
X55445671Y-71824559D01*
X55990000Y-71932833D01*
X56534329Y-71824559D01*
X56995789Y-71516222D01*
X57259754Y-71121170D01*
X57264475Y-71137262D01*
X57614014Y-71571191D01*
X58103004Y-71838327D01*
X58182940Y-71855010D01*
X58403000Y-71732852D01*
X58403000Y-70247000D01*
X58383000Y-70247000D01*
X58383000Y-69993000D01*
X58403000Y-69993000D01*
X58403000Y-68507148D01*
X58657000Y-68507148D01*
X58657000Y-69993000D01*
X58677000Y-69993000D01*
X58677000Y-70247000D01*
X58657000Y-70247000D01*
X58657000Y-71732852D01*
X58877060Y-71855010D01*
X58956996Y-71838327D01*
X59445986Y-71571191D01*
X59795525Y-71137262D01*
X59800246Y-71121170D01*
X60064211Y-71516222D01*
X60525671Y-71824559D01*
X61070000Y-71932833D01*
X61614329Y-71824559D01*
X62075789Y-71516222D01*
X62340000Y-71120801D01*
X62604211Y-71516222D01*
X63065671Y-71824559D01*
X63610000Y-71932833D01*
X64154329Y-71824559D01*
X64615789Y-71516222D01*
X64880000Y-71120801D01*
X65144211Y-71516222D01*
X65605671Y-71824559D01*
X66150000Y-71932833D01*
X66694329Y-71824559D01*
X67155789Y-71516222D01*
X67420000Y-71120801D01*
X67684211Y-71516222D01*
X68145671Y-71824559D01*
X68690000Y-71932833D01*
X69234329Y-71824559D01*
X69695789Y-71516222D01*
X69960000Y-71120801D01*
X70224211Y-71516222D01*
X70685671Y-71824559D01*
X71230000Y-71932833D01*
X71774329Y-71824559D01*
X72235789Y-71516222D01*
X72500000Y-71120801D01*
X72764211Y-71516222D01*
X73225671Y-71824559D01*
X73770000Y-71932833D01*
X74314329Y-71824559D01*
X74775789Y-71516222D01*
X75040000Y-71120801D01*
X75304211Y-71516222D01*
X75765671Y-71824559D01*
X76310000Y-71932833D01*
X76854329Y-71824559D01*
X77315789Y-71516222D01*
X77580000Y-71120801D01*
X77844211Y-71516222D01*
X78305671Y-71824559D01*
X78850000Y-71932833D01*
X79394329Y-71824559D01*
X79855789Y-71516222D01*
X80120000Y-71120801D01*
X80384211Y-71516222D01*
X80845671Y-71824559D01*
X81390000Y-71932833D01*
X81934329Y-71824559D01*
X82395789Y-71516222D01*
X82660000Y-71120801D01*
X82924211Y-71516222D01*
X83385671Y-71824559D01*
X83930000Y-71932833D01*
X84474329Y-71824559D01*
X84935789Y-71516222D01*
X85200000Y-71120801D01*
X85464211Y-71516222D01*
X85925671Y-71824559D01*
X86470000Y-71932833D01*
X87014329Y-71824559D01*
X87475789Y-71516222D01*
X87740000Y-71120801D01*
X88004211Y-71516222D01*
X88465671Y-71824559D01*
X89010000Y-71932833D01*
X89554329Y-71824559D01*
X90015789Y-71516222D01*
X90130503Y-71344540D01*
X90159438Y-71498317D01*
X90298510Y-71714441D01*
X90510710Y-71859431D01*
X90762600Y-71910440D01*
X92337400Y-71910440D01*
X92572717Y-71866162D01*
X92788841Y-71727090D01*
X92933831Y-71514890D01*
X92984840Y-71263000D01*
X92984840Y-70985000D01*
X93868178Y-70985000D01*
X93988201Y-71034838D01*
X94360167Y-71035162D01*
X94703943Y-70893117D01*
X94967192Y-70630327D01*
X95109838Y-70286799D01*
X95110162Y-69914833D01*
X94968117Y-69571057D01*
X94705327Y-69307808D01*
X94361799Y-69165162D01*
X93989833Y-69164838D01*
X93868431Y-69215000D01*
X92984840Y-69215000D01*
X92984840Y-68977000D01*
X92940562Y-68741683D01*
X92801490Y-68525559D01*
X92589290Y-68380569D01*
X92337400Y-68329560D01*
X90762600Y-68329560D01*
X90527283Y-68373838D01*
X90311159Y-68512910D01*
X90166169Y-68725110D01*
X90131400Y-68896803D01*
X90015789Y-68723778D01*
X89554329Y-68415441D01*
X89010000Y-68307167D01*
X88465671Y-68415441D01*
X88004211Y-68723778D01*
X87740000Y-69119199D01*
X87475789Y-68723778D01*
X87014329Y-68415441D01*
X86470000Y-68307167D01*
X85925671Y-68415441D01*
X85464211Y-68723778D01*
X85200000Y-69119199D01*
X84935789Y-68723778D01*
X84474329Y-68415441D01*
X83930000Y-68307167D01*
X83385671Y-68415441D01*
X82924211Y-68723778D01*
X82660000Y-69119199D01*
X82395789Y-68723778D01*
X81934329Y-68415441D01*
X81390000Y-68307167D01*
X80845671Y-68415441D01*
X80384211Y-68723778D01*
X80120000Y-69119199D01*
X79855789Y-68723778D01*
X79394329Y-68415441D01*
X78850000Y-68307167D01*
X78305671Y-68415441D01*
X77844211Y-68723778D01*
X77580000Y-69119199D01*
X77315789Y-68723778D01*
X76854329Y-68415441D01*
X76310000Y-68307167D01*
X75765671Y-68415441D01*
X75304211Y-68723778D01*
X75040000Y-69119199D01*
X74775789Y-68723778D01*
X74314329Y-68415441D01*
X73770000Y-68307167D01*
X73225671Y-68415441D01*
X72764211Y-68723778D01*
X72500000Y-69119199D01*
X72235789Y-68723778D01*
X71774329Y-68415441D01*
X71230000Y-68307167D01*
X70685671Y-68415441D01*
X70224211Y-68723778D01*
X69960000Y-69119199D01*
X69695789Y-68723778D01*
X69234329Y-68415441D01*
X68690000Y-68307167D01*
X68145671Y-68415441D01*
X67684211Y-68723778D01*
X67420000Y-69119199D01*
X67155789Y-68723778D01*
X66694329Y-68415441D01*
X66150000Y-68307167D01*
X65605671Y-68415441D01*
X65144211Y-68723778D01*
X64880000Y-69119199D01*
X64615789Y-68723778D01*
X64154329Y-68415441D01*
X63610000Y-68307167D01*
X63065671Y-68415441D01*
X62604211Y-68723778D01*
X62340000Y-69119199D01*
X62075789Y-68723778D01*
X61614329Y-68415441D01*
X61070000Y-68307167D01*
X60525671Y-68415441D01*
X60064211Y-68723778D01*
X59800246Y-69118830D01*
X59795525Y-69102738D01*
X59445986Y-68668809D01*
X58956996Y-68401673D01*
X58877060Y-68384990D01*
X58657000Y-68507148D01*
X58403000Y-68507148D01*
X58182940Y-68384990D01*
X58103004Y-68401673D01*
X57614014Y-68668809D01*
X57264475Y-69102738D01*
X57259754Y-69118830D01*
X56995789Y-68723778D01*
X56534329Y-68415441D01*
X55990000Y-68307167D01*
X55445671Y-68415441D01*
X54984211Y-68723778D01*
X54675874Y-69185238D01*
X54567600Y-69729567D01*
X50710000Y-69729567D01*
X50710000Y-66385167D01*
X70264838Y-66385167D01*
X70406883Y-66728943D01*
X70669673Y-66992192D01*
X71013201Y-67134838D01*
X71385167Y-67135162D01*
X71506569Y-67085000D01*
X126193178Y-67085000D01*
X126313201Y-67134838D01*
X126685167Y-67135162D01*
X127028943Y-66993117D01*
X127292192Y-66730327D01*
X127434838Y-66386799D01*
X127435162Y-66014833D01*
X127293117Y-65671057D01*
X127030327Y-65407808D01*
X126686799Y-65265162D01*
X126314833Y-65264838D01*
X126193431Y-65315000D01*
X71506822Y-65315000D01*
X71386799Y-65265162D01*
X71014833Y-65264838D01*
X70671057Y-65406883D01*
X70407808Y-65669673D01*
X70265162Y-66013201D01*
X70264838Y-66385167D01*
X50710000Y-66385167D01*
X50710000Y-63860167D01*
X72864838Y-63860167D01*
X73006883Y-64203943D01*
X73269673Y-64467192D01*
X73613201Y-64609838D01*
X73985167Y-64610162D01*
X74106569Y-64560000D01*
X123643178Y-64560000D01*
X123763201Y-64609838D01*
X124135167Y-64610162D01*
X124478943Y-64468117D01*
X124742192Y-64205327D01*
X124800569Y-64064740D01*
X141158964Y-64064740D01*
X141183244Y-64170086D01*
X141474788Y-64695606D01*
X141945248Y-65069554D01*
X142523000Y-65235000D01*
X143073000Y-65235000D01*
X143073000Y-63827000D01*
X143327000Y-63827000D01*
X143327000Y-65235000D01*
X143877000Y-65235000D01*
X144454752Y-65069554D01*
X144925212Y-64695606D01*
X145216756Y-64170086D01*
X145241036Y-64064740D01*
X145908964Y-64064740D01*
X145933244Y-64170086D01*
X146224788Y-64695606D01*
X146695248Y-65069554D01*
X147273000Y-65235000D01*
X147823000Y-65235000D01*
X147823000Y-63827000D01*
X146029622Y-63827000D01*
X145908964Y-64064740D01*
X145241036Y-64064740D01*
X145120378Y-63827000D01*
X143327000Y-63827000D01*
X143073000Y-63827000D01*
X141279622Y-63827000D01*
X141158964Y-64064740D01*
X124800569Y-64064740D01*
X124884838Y-63861799D01*
X124885162Y-63489833D01*
X124821294Y-63335260D01*
X141158964Y-63335260D01*
X141279622Y-63573000D01*
X143073000Y-63573000D01*
X143073000Y-62165000D01*
X143327000Y-62165000D01*
X143327000Y-63573000D01*
X145120378Y-63573000D01*
X145241036Y-63335260D01*
X145908964Y-63335260D01*
X146029622Y-63573000D01*
X147823000Y-63573000D01*
X147823000Y-62165000D01*
X147273000Y-62165000D01*
X146695248Y-62330446D01*
X146224788Y-62704394D01*
X145933244Y-63229914D01*
X145908964Y-63335260D01*
X145241036Y-63335260D01*
X145216756Y-63229914D01*
X144925212Y-62704394D01*
X144454752Y-62330446D01*
X143877000Y-62165000D01*
X143327000Y-62165000D01*
X143073000Y-62165000D01*
X142523000Y-62165000D01*
X141945248Y-62330446D01*
X141474788Y-62704394D01*
X141183244Y-63229914D01*
X141158964Y-63335260D01*
X124821294Y-63335260D01*
X124743117Y-63146057D01*
X124480327Y-62882808D01*
X124136799Y-62740162D01*
X123764833Y-62739838D01*
X123643431Y-62790000D01*
X74106822Y-62790000D01*
X73986799Y-62740162D01*
X73614833Y-62739838D01*
X73271057Y-62881883D01*
X73007808Y-63144673D01*
X72865162Y-63488201D01*
X72864838Y-63860167D01*
X50710000Y-63860167D01*
X50710000Y-61442619D01*
X63764613Y-61442619D01*
X64104155Y-62264372D01*
X64732321Y-62893636D01*
X65553481Y-63234611D01*
X66442619Y-63235387D01*
X67264372Y-62895845D01*
X67893636Y-62267679D01*
X68234611Y-61446519D01*
X68234882Y-61135167D01*
X80464838Y-61135167D01*
X80606883Y-61478943D01*
X80869673Y-61742192D01*
X81213201Y-61884838D01*
X81585167Y-61885162D01*
X81706569Y-61835000D01*
X106093178Y-61835000D01*
X106213201Y-61884838D01*
X106585167Y-61885162D01*
X106928943Y-61743117D01*
X107192192Y-61480327D01*
X107334838Y-61136799D01*
X107335162Y-60764833D01*
X107193117Y-60421057D01*
X107157123Y-60385000D01*
X108643178Y-60385000D01*
X108763201Y-60434838D01*
X109135167Y-60435162D01*
X109478943Y-60293117D01*
X109742192Y-60030327D01*
X109884838Y-59686799D01*
X109885162Y-59314833D01*
X109743117Y-58971057D01*
X109619170Y-58846893D01*
X110049029Y-58559670D01*
X110230000Y-58288828D01*
X110410971Y-58559670D01*
X110897152Y-58884526D01*
X111470641Y-58998600D01*
X111529359Y-58998600D01*
X112102848Y-58884526D01*
X112550870Y-58585167D01*
X145064838Y-58585167D01*
X145206883Y-58928943D01*
X145469673Y-59192192D01*
X145813201Y-59334838D01*
X146185167Y-59335162D01*
X146528943Y-59193117D01*
X146792192Y-58930327D01*
X146934838Y-58586799D01*
X146935162Y-58214833D01*
X146793117Y-57871057D01*
X146530327Y-57607808D01*
X146186799Y-57465162D01*
X145814833Y-57464838D01*
X145471057Y-57606883D01*
X145207808Y-57869673D01*
X145065162Y-58213201D01*
X145064838Y-58585167D01*
X112550870Y-58585167D01*
X112589029Y-58559670D01*
X112913885Y-58073489D01*
X113027959Y-57500000D01*
X112913885Y-56926511D01*
X112738976Y-56664740D01*
X141158964Y-56664740D01*
X141183244Y-56770086D01*
X141474788Y-57295606D01*
X141945248Y-57669554D01*
X142523000Y-57835000D01*
X143073000Y-57835000D01*
X143073000Y-56427000D01*
X143327000Y-56427000D01*
X143327000Y-57835000D01*
X143877000Y-57835000D01*
X144454752Y-57669554D01*
X144925212Y-57295606D01*
X145216756Y-56770086D01*
X145241036Y-56664740D01*
X145908964Y-56664740D01*
X145933244Y-56770086D01*
X146224788Y-57295606D01*
X146695248Y-57669554D01*
X147273000Y-57835000D01*
X147823000Y-57835000D01*
X147823000Y-56427000D01*
X146029622Y-56427000D01*
X145908964Y-56664740D01*
X145241036Y-56664740D01*
X145120378Y-56427000D01*
X143327000Y-56427000D01*
X143073000Y-56427000D01*
X141279622Y-56427000D01*
X141158964Y-56664740D01*
X112738976Y-56664740D01*
X112589029Y-56440330D01*
X112274248Y-56230000D01*
X112589029Y-56019670D01*
X112645430Y-55935260D01*
X141158964Y-55935260D01*
X141279622Y-56173000D01*
X143073000Y-56173000D01*
X143073000Y-54765000D01*
X143327000Y-54765000D01*
X143327000Y-56173000D01*
X145120378Y-56173000D01*
X145241036Y-55935260D01*
X145908964Y-55935260D01*
X146029622Y-56173000D01*
X147823000Y-56173000D01*
X147823000Y-54765000D01*
X147273000Y-54765000D01*
X146695248Y-54930446D01*
X146224788Y-55304394D01*
X145933244Y-55829914D01*
X145908964Y-55935260D01*
X145241036Y-55935260D01*
X145216756Y-55829914D01*
X144925212Y-55304394D01*
X144454752Y-54930446D01*
X143877000Y-54765000D01*
X143327000Y-54765000D01*
X143073000Y-54765000D01*
X142523000Y-54765000D01*
X141945248Y-54930446D01*
X141474788Y-55304394D01*
X141183244Y-55829914D01*
X141158964Y-55935260D01*
X112645430Y-55935260D01*
X112913885Y-55533489D01*
X113027959Y-54960000D01*
X112913885Y-54386511D01*
X112589029Y-53900330D01*
X112102848Y-53575474D01*
X111529359Y-53461400D01*
X111470641Y-53461400D01*
X110897152Y-53575474D01*
X110410971Y-53900330D01*
X110230000Y-54171172D01*
X110049029Y-53900330D01*
X109562848Y-53575474D01*
X109453347Y-53553693D01*
X109478943Y-53543117D01*
X109742192Y-53280327D01*
X109884838Y-52936799D01*
X109884982Y-52770907D01*
X119935000Y-52770907D01*
X119935000Y-52829093D01*
X120048039Y-53397378D01*
X120369946Y-53879147D01*
X120851715Y-54201054D01*
X121420000Y-54314093D01*
X121988285Y-54201054D01*
X122470054Y-53879147D01*
X122690000Y-53549974D01*
X122909946Y-53879147D01*
X123391715Y-54201054D01*
X123960000Y-54314093D01*
X124528285Y-54201054D01*
X125010054Y-53879147D01*
X125230000Y-53549974D01*
X125449946Y-53879147D01*
X125931715Y-54201054D01*
X126500000Y-54314093D01*
X127068285Y-54201054D01*
X127550054Y-53879147D01*
X127777702Y-53538447D01*
X127844817Y-53681358D01*
X128273076Y-54071645D01*
X128683110Y-54241476D01*
X128913000Y-54120155D01*
X128913000Y-52927000D01*
X128893000Y-52927000D01*
X128893000Y-52673000D01*
X128913000Y-52673000D01*
X128913000Y-51479845D01*
X129167000Y-51479845D01*
X129167000Y-52673000D01*
X129187000Y-52673000D01*
X129187000Y-52927000D01*
X129167000Y-52927000D01*
X129167000Y-54120155D01*
X129396890Y-54241476D01*
X129806924Y-54071645D01*
X130235183Y-53681358D01*
X130302298Y-53538447D01*
X130529946Y-53879147D01*
X131011715Y-54201054D01*
X131580000Y-54314093D01*
X132148285Y-54201054D01*
X132630054Y-53879147D01*
X132657850Y-53837548D01*
X132666838Y-53885317D01*
X132805910Y-54101441D01*
X133018110Y-54246431D01*
X133270000Y-54297440D01*
X134970000Y-54297440D01*
X135205317Y-54253162D01*
X135421441Y-54114090D01*
X135566431Y-53901890D01*
X135617440Y-53650000D01*
X135617440Y-51950000D01*
X135573162Y-51714683D01*
X135434090Y-51498559D01*
X135221890Y-51353569D01*
X134970000Y-51302560D01*
X133270000Y-51302560D01*
X133034683Y-51346838D01*
X132818559Y-51485910D01*
X132673569Y-51698110D01*
X132659914Y-51765541D01*
X132630054Y-51720853D01*
X132148285Y-51398946D01*
X131580000Y-51285907D01*
X131011715Y-51398946D01*
X130529946Y-51720853D01*
X130302298Y-52061553D01*
X130235183Y-51918642D01*
X129806924Y-51528355D01*
X129396890Y-51358524D01*
X129167000Y-51479845D01*
X128913000Y-51479845D01*
X128683110Y-51358524D01*
X128273076Y-51528355D01*
X127844817Y-51918642D01*
X127777702Y-52061553D01*
X127550054Y-51720853D01*
X127068285Y-51398946D01*
X126500000Y-51285907D01*
X125931715Y-51398946D01*
X125449946Y-51720853D01*
X125230000Y-52050026D01*
X125010054Y-51720853D01*
X124528285Y-51398946D01*
X123960000Y-51285907D01*
X123391715Y-51398946D01*
X122909946Y-51720853D01*
X122690000Y-52050026D01*
X122470054Y-51720853D01*
X121988285Y-51398946D01*
X121420000Y-51285907D01*
X120851715Y-51398946D01*
X120369946Y-51720853D01*
X120048039Y-52202622D01*
X119935000Y-52770907D01*
X109884982Y-52770907D01*
X109885101Y-52635000D01*
X111193178Y-52635000D01*
X111313201Y-52684838D01*
X111685167Y-52685162D01*
X112028943Y-52543117D01*
X112292192Y-52280327D01*
X112434838Y-51936799D01*
X112435162Y-51564833D01*
X112293117Y-51221057D01*
X112030327Y-50957808D01*
X111686799Y-50815162D01*
X111314833Y-50814838D01*
X111193431Y-50865000D01*
X89306822Y-50865000D01*
X89186799Y-50815162D01*
X88814833Y-50814838D01*
X88471057Y-50956883D01*
X88207808Y-51219673D01*
X88065162Y-51563201D01*
X88064838Y-51935167D01*
X88206883Y-52278943D01*
X88469673Y-52542192D01*
X88813201Y-52684838D01*
X89185167Y-52685162D01*
X89306569Y-52635000D01*
X93240099Y-52635000D01*
X93239838Y-52935167D01*
X93381883Y-53278943D01*
X93644673Y-53542192D01*
X93988201Y-53684838D01*
X94360167Y-53685162D01*
X94481569Y-53635000D01*
X102579775Y-53635000D01*
X102478073Y-53736701D01*
X102381400Y-53970090D01*
X102381400Y-54674250D01*
X102540150Y-54833000D01*
X103753000Y-54833000D01*
X103753000Y-54813000D01*
X104007000Y-54813000D01*
X104007000Y-54833000D01*
X104027000Y-54833000D01*
X104027000Y-55087000D01*
X104007000Y-55087000D01*
X104007000Y-55107000D01*
X103753000Y-55107000D01*
X103753000Y-55087000D01*
X102540150Y-55087000D01*
X102381400Y-55245750D01*
X102381400Y-55949910D01*
X102478073Y-56183299D01*
X102656702Y-56361927D01*
X102812023Y-56426263D01*
X102790971Y-56440330D01*
X102466115Y-56926511D01*
X102352041Y-57500000D01*
X102466115Y-58073489D01*
X102790971Y-58559670D01*
X102873778Y-58615000D01*
X91942028Y-58615000D01*
X91761799Y-58540162D01*
X91389833Y-58539838D01*
X91046057Y-58681883D01*
X90782808Y-58944673D01*
X90640162Y-59288201D01*
X90639838Y-59660167D01*
X90781883Y-60003943D01*
X90842834Y-60065000D01*
X81706822Y-60065000D01*
X81586799Y-60015162D01*
X81214833Y-60014838D01*
X80871057Y-60156883D01*
X80607808Y-60419673D01*
X80465162Y-60763201D01*
X80464838Y-61135167D01*
X68234882Y-61135167D01*
X68235387Y-60557381D01*
X67895845Y-59735628D01*
X67267679Y-59106364D01*
X66446519Y-58765389D01*
X65557381Y-58764613D01*
X64735628Y-59104155D01*
X64106364Y-59732321D01*
X63765389Y-60553481D01*
X63764613Y-61442619D01*
X50710000Y-61442619D01*
X50710000Y-55294092D01*
X51514525Y-54489567D01*
X54567600Y-54489567D01*
X54567600Y-55270433D01*
X54675874Y-55814762D01*
X54984211Y-56276222D01*
X55445671Y-56584559D01*
X55990000Y-56692833D01*
X56534329Y-56584559D01*
X56995789Y-56276222D01*
X57260000Y-55880801D01*
X57524211Y-56276222D01*
X57985671Y-56584559D01*
X58530000Y-56692833D01*
X59074329Y-56584559D01*
X59535789Y-56276222D01*
X59800000Y-55880801D01*
X60064211Y-56276222D01*
X60525671Y-56584559D01*
X61070000Y-56692833D01*
X61614329Y-56584559D01*
X62075789Y-56276222D01*
X62339754Y-55881170D01*
X62344475Y-55897262D01*
X62694014Y-56331191D01*
X63183004Y-56598327D01*
X63262940Y-56615010D01*
X63483000Y-56492852D01*
X63483000Y-55007000D01*
X63463000Y-55007000D01*
X63463000Y-54753000D01*
X63483000Y-54753000D01*
X63483000Y-53267148D01*
X63737000Y-53267148D01*
X63737000Y-54753000D01*
X63757000Y-54753000D01*
X63757000Y-55007000D01*
X63737000Y-55007000D01*
X63737000Y-56492852D01*
X63957060Y-56615010D01*
X64036996Y-56598327D01*
X64525986Y-56331191D01*
X64875525Y-55897262D01*
X64880246Y-55881170D01*
X65144211Y-56276222D01*
X65605671Y-56584559D01*
X66150000Y-56692833D01*
X66694329Y-56584559D01*
X67155789Y-56276222D01*
X67420000Y-55880801D01*
X67684211Y-56276222D01*
X68145671Y-56584559D01*
X68690000Y-56692833D01*
X69234329Y-56584559D01*
X69695789Y-56276222D01*
X69960000Y-55880801D01*
X70224211Y-56276222D01*
X70685671Y-56584559D01*
X71230000Y-56692833D01*
X71774329Y-56584559D01*
X72235789Y-56276222D01*
X72500000Y-55880801D01*
X72764211Y-56276222D01*
X73225671Y-56584559D01*
X73770000Y-56692833D01*
X74314329Y-56584559D01*
X74775789Y-56276222D01*
X75040000Y-55880801D01*
X75304211Y-56276222D01*
X75765671Y-56584559D01*
X76310000Y-56692833D01*
X76854329Y-56584559D01*
X77315789Y-56276222D01*
X77580000Y-55880801D01*
X77844211Y-56276222D01*
X78305671Y-56584559D01*
X78850000Y-56692833D01*
X79394329Y-56584559D01*
X79855789Y-56276222D01*
X80120000Y-55880801D01*
X80384211Y-56276222D01*
X80845671Y-56584559D01*
X81390000Y-56692833D01*
X81934329Y-56584559D01*
X82395789Y-56276222D01*
X82660000Y-55880801D01*
X82924211Y-56276222D01*
X83385671Y-56584559D01*
X83930000Y-56692833D01*
X84474329Y-56584559D01*
X84935789Y-56276222D01*
X85200000Y-55880801D01*
X85464211Y-56276222D01*
X85925671Y-56584559D01*
X86470000Y-56692833D01*
X87014329Y-56584559D01*
X87475789Y-56276222D01*
X87740000Y-55880801D01*
X88004211Y-56276222D01*
X88465671Y-56584559D01*
X89010000Y-56692833D01*
X89554329Y-56584559D01*
X90015789Y-56276222D01*
X90280000Y-55880801D01*
X90544211Y-56276222D01*
X91005671Y-56584559D01*
X91550000Y-56692833D01*
X92094329Y-56584559D01*
X92555789Y-56276222D01*
X92864126Y-55814762D01*
X92972400Y-55270433D01*
X92972400Y-54489567D01*
X92864126Y-53945238D01*
X92555789Y-53483778D01*
X92094329Y-53175441D01*
X91550000Y-53067167D01*
X91005671Y-53175441D01*
X90544211Y-53483778D01*
X90280000Y-53879199D01*
X90015789Y-53483778D01*
X89554329Y-53175441D01*
X89010000Y-53067167D01*
X88465671Y-53175441D01*
X88004211Y-53483778D01*
X87740000Y-53879199D01*
X87475789Y-53483778D01*
X87014329Y-53175441D01*
X86470000Y-53067167D01*
X85925671Y-53175441D01*
X85464211Y-53483778D01*
X85200000Y-53879199D01*
X84935789Y-53483778D01*
X84474329Y-53175441D01*
X83930000Y-53067167D01*
X83385671Y-53175441D01*
X82924211Y-53483778D01*
X82660000Y-53879199D01*
X82395789Y-53483778D01*
X81934329Y-53175441D01*
X81390000Y-53067167D01*
X80845671Y-53175441D01*
X80384211Y-53483778D01*
X80120000Y-53879199D01*
X79855789Y-53483778D01*
X79605749Y-53316707D01*
X79642192Y-53280327D01*
X79784838Y-52936799D01*
X79785162Y-52564833D01*
X79643117Y-52221057D01*
X79380327Y-51957808D01*
X79036799Y-51815162D01*
X78664833Y-51814838D01*
X78321057Y-51956883D01*
X78057808Y-52219673D01*
X77915162Y-52563201D01*
X77914838Y-52935167D01*
X78056883Y-53278943D01*
X78094449Y-53316575D01*
X77844211Y-53483778D01*
X77580000Y-53879199D01*
X77315789Y-53483778D01*
X76854329Y-53175441D01*
X76310000Y-53067167D01*
X75765671Y-53175441D01*
X75304211Y-53483778D01*
X75040000Y-53879199D01*
X74775789Y-53483778D01*
X74314329Y-53175441D01*
X73770000Y-53067167D01*
X73225671Y-53175441D01*
X72764211Y-53483778D01*
X72500000Y-53879199D01*
X72235789Y-53483778D01*
X71774329Y-53175441D01*
X71230000Y-53067167D01*
X70685671Y-53175441D01*
X70224211Y-53483778D01*
X69960000Y-53879199D01*
X69695789Y-53483778D01*
X69234329Y-53175441D01*
X68690000Y-53067167D01*
X68145671Y-53175441D01*
X67684211Y-53483778D01*
X67420000Y-53879199D01*
X67155789Y-53483778D01*
X66694329Y-53175441D01*
X66150000Y-53067167D01*
X65605671Y-53175441D01*
X65144211Y-53483778D01*
X64880246Y-53878830D01*
X64875525Y-53862738D01*
X64525986Y-53428809D01*
X64036996Y-53161673D01*
X63957060Y-53144990D01*
X63737000Y-53267148D01*
X63483000Y-53267148D01*
X63262940Y-53144990D01*
X63183004Y-53161673D01*
X62694014Y-53428809D01*
X62344475Y-53862738D01*
X62339754Y-53878830D01*
X62075789Y-53483778D01*
X61614329Y-53175441D01*
X61070000Y-53067167D01*
X60525671Y-53175441D01*
X60064211Y-53483778D01*
X59800000Y-53879199D01*
X59535789Y-53483778D01*
X59074329Y-53175441D01*
X58530000Y-53067167D01*
X57985671Y-53175441D01*
X57524211Y-53483778D01*
X57260000Y-53879199D01*
X56995789Y-53483778D01*
X56534329Y-53175441D01*
X55990000Y-53067167D01*
X55445671Y-53175441D01*
X54984211Y-53483778D01*
X54675874Y-53945238D01*
X54567600Y-54489567D01*
X51514525Y-54489567D01*
X55294092Y-50710000D01*
X144705908Y-50710000D01*
X148814641Y-54818733D01*
M02*
